<?xml version="1.0" encoding="utf-8"?>
<!-- Generator: Adobe Illustrator 16.0.0, SVG Export Plug-In . SVG Version: 6.00 Build 0)  -->
<!DOCTYPE svg PUBLIC "-//W3C//DTD SVG 1.1//EN" "http://www.w3.org/Graphics/SVG/1.1/DTD/svg11.dtd">
<svg version="1.1" id="Layer_1" xmlns="http://www.w3.org/2000/svg" xmlns:xlink="http://www.w3.org/1999/xlink" x="0px" y="0px"
	 width="150px" height="150px" viewBox="0 0 150 150" enable-background="new 0 0 150 150" xml:space="preserve">
<rect x="0.088" y="-2.301" fill="#BAE5F8" width="150" height="152.999"/>
<g id="Seed_Icon" opacity="0.5">
	<path fill="#FFFFFF" d="M111.963,108.026c1.297,0-19.385,18.142-43.291,18.142s-43.288-17.828-43.288-18.142
		c0-0.312,19.382-18.142,43.288-18.142S111.527,108.026,111.963,108.026z"/>
	<path fill="#BAE5F8" d="M79.062,98.109c0,2.152-4.47,3.895-9.984,3.895c-5.511,0-9.983-1.742-9.983-3.895s4.473-3.895,9.983-3.895
		C74.592,94.215,79.062,95.957,79.062,98.109z"/>
	<path fill="#FFFFFF" d="M65.214,97.764c-0.647-0.627,0.016-1.313,0.043-3.617c0.076-2.412,0.171-5.799,0.547-9.82
		c0.363-4.031,0.955-8.718,1.916-13.674c0.945-4.961,2.304-10.188,4.075-15.27c1.783-5.075,3.994-10.018,6.657-14.316
		c1.325-2.15,2.732-4.155,4.253-5.909c1.51-1.755,3.048-3.326,4.652-4.562c1.59-1.243,3.151-2.256,4.648-2.924
		c1.468-0.721,2.845-1.107,3.973-1.384c1.145-0.212,2.041-0.35,2.661-0.352c0.617-0.032,0.945-0.051,0.945-0.051
		s-0.323,0.051-0.935,0.143c-0.611,0.062-1.487,0.289-2.579,0.604c-1.075,0.381-2.365,0.883-3.705,1.716
		c-1.368,0.776-2.763,1.895-4.152,3.221c-1.404,1.32-2.721,2.959-3.984,4.762c-1.272,1.802-2.42,3.839-3.479,6.002
		c-2.123,4.325-3.76,9.236-4.979,14.23c-1.203,5.003-2.006,10.097-2.437,14.9c-0.447,4.8-0.57,9.301-0.533,13.147
		c0.019,3.858,0.25,7.051,0.391,9.238c0.201,2.294,0.912,2.925,0.314,3.605C72.133,99.007,66.702,99.213,65.214,97.764z"/>
	<path fill="#FFFFFF" d="M122.976,34.086c5.658,10.664-3.708,30.877-3.708,30.877s-23.137-2.968-28.795-13.633
		c-5.658-10.665,7.829-24.493,7.829-24.493S117.315,23.42,122.976,34.086z"/>
	<g>
		<path fill="#BAE5F8" d="M115.045,52.305c0,0-0.094-0.343-0.233-0.947c-0.116-0.609-0.356-1.464-0.614-2.48
			c-0.119-0.51-0.307-1.053-0.458-1.634c-0.148-0.583-0.378-1.176-0.562-1.803c-0.187-0.627-0.457-1.248-0.671-1.899
			c-0.261-0.631-0.501-1.286-0.801-1.91c-0.281-0.634-0.574-1.261-0.909-1.853c-0.309-0.607-0.673-1.165-1.014-1.713
			c-0.375-0.521-0.724-1.039-1.12-1.471c-0.182-0.234-0.382-0.436-0.585-0.62c-0.203-0.183-0.376-0.398-0.586-0.539
			c-0.204-0.152-0.4-0.298-0.587-0.437c-0.192-0.13-0.394-0.218-0.574-0.322c-0.357-0.233-0.729-0.262-1.013-0.375
			c-0.294-0.063-0.536-0.063-0.701-0.088c-0.166-0.017-0.255-0.026-0.255-0.026s0.088-0.01,0.252-0.028
			c0.165-0.007,0.414-0.074,0.729-0.051c0.304,0.065,0.716,0.042,1.125,0.222c0.208,0.078,0.443,0.141,0.671,0.247
			c0.218,0.124,0.447,0.254,0.687,0.391c0.248,0.129,0.452,0.33,0.693,0.503c0.243,0.175,0.471,0.379,0.684,0.607
			c0.463,0.429,0.881,0.937,1.299,1.476c0.38,0.559,0.815,1.12,1.139,1.752c0.359,0.614,0.677,1.26,0.977,1.914
			c0.301,0.653,0.537,1.332,0.795,1.988c0.218,0.67,0.44,1.328,0.606,1.977s0.339,1.273,0.442,1.878
			c0.113,0.603,0.236,1.167,0.297,1.701c0.152,1.062,0.214,1.946,0.246,2.564C115.038,51.95,115.045,52.305,115.045,52.305z"/>
	</g>
	<path fill="#FFFFFF" d="M70.558,58.882c0,0,0.205-0.21,0.585-0.604c0.39-0.384,0.958-0.96,1.551-1.762
		c0.323-0.38,0.649-0.827,0.96-1.351c0.335-0.504,0.683-1.055,0.977-1.688c0.68-1.217,1.184-2.714,1.624-4.349
		c0.354-1.661,0.594-3.489,0.49-5.416c-0.125-1.92-0.484-3.922-1.213-5.873c-0.703-1.956-1.822-3.817-3.218-5.463l-0.439-0.535
		l-0.645-0.579c-0.432-0.367-0.862-0.815-1.299-1.119c-0.88-0.453-1.641-1.029-2.691-1.291c-0.956-0.428-2.014-0.433-3.014-0.608
		c-1.021,0.098-2.047,0.013-3,0.372c-0.996,0.167-1.852,0.678-2.732,1.068c-0.448,0.183-0.788,0.554-1.186,0.811l-0.573,0.418
		l-0.144,0.103l-0.073,0.051c0.255-0.244,0.061-0.057,0.113-0.106l-0.016,0.019l-0.036,0.038l-0.276,0.304
		c-0.375,0.39-0.82,0.818-0.897,1.087c-0.175,0.288-0.385,0.566-0.514,0.98l-0.238,0.555l-0.115,0.589
		c-0.035,0.196-0.1,0.387-0.128,0.584l-0.013,0.589c-0.051,1.552,0.607,3.091,1.425,4.12c0.865,1.011,2.076,1.341,3.217,1.21
		c0.562-0.05,1.076-0.255,1.519-0.516l0.174-0.087c-0.057,0.076,0.085-0.062,0.115-0.082l0.325-0.272
		c0.101-0.146,0.251-0.248,0.336-0.448c0.431-0.72,0.366-1.488,0.23-1.952c-0.129-0.48-0.314-0.715-0.292-0.723l0.259-0.226
		c-0.016,0.013,0.254,0.189,0.585,0.697c0.336,0.491,0.677,1.439,0.354,2.648c-0.052,0.298-0.239,0.626-0.428,0.964l-0.262,0.362
		c-0.072,0.084-0.022,0.067-0.198,0.236l-0.201,0.173c-0.53,0.485-1.211,0.935-2.037,1.194c-0.818,0.312-1.776,0.336-2.764,0.196
		c-0.493-0.1-0.972-0.231-1.495-0.473c-0.264-0.137-0.526-0.294-0.784-0.456c-0.281-0.173-0.365-0.287-0.556-0.436
		c-1.599-1.473-2.714-3.553-2.87-6.025l-0.046-0.924c0.02-0.309,0.066-0.619,0.112-0.931l0.153-0.939l0.318-0.913
		c0.123-0.307,0.197-0.61,0.367-0.92l0.574-0.926c0.419-0.698,0.782-1.009,1.155-1.417l0.29-0.293l0.202-0.199l0.097-0.066
		l0.197-0.134l0.784-0.536c0.541-0.332,1.028-0.765,1.626-1.003c1.182-0.514,2.381-1.024,3.687-1.169
		c1.27-0.329,2.592-0.174,3.887-0.181c1.276,0.27,2.587,0.408,3.763,1c1.221,0.387,2.349,1.228,3.453,1.98
		c0.487,0.395,0.842,0.818,1.269,1.225l0.612,0.613l0.036,0.039c0.177,0.184,0.06,0.064,0.105,0.112l0.016,0.022l0.068,0.093
		l0.137,0.183l0.27,0.369c1.465,1.939,2.592,4.089,3.253,6.294c0.674,2.199,0.979,4.416,0.944,6.503
		c-0.044,2.094-0.448,4.033-0.954,5.76c-0.594,1.703-1.241,3.229-2.045,4.447c-0.354,0.634-0.759,1.181-1.145,1.675
		c-0.36,0.513-0.731,0.953-1.101,1.327c-0.688,0.795-1.292,1.316-1.707,1.674c-0.41,0.363-0.627,0.557-0.627,0.557L70.558,58.882z"
		/>
</g>
</svg>
