<?xml version="1.0" encoding="utf-8"?>
<!-- Generator: Adobe Illustrator 16.0.0, SVG Export Plug-In . SVG Version: 6.00 Build 0)  -->
<!DOCTYPE svg PUBLIC "-//W3C//DTD SVG 1.1//EN" "http://www.w3.org/Graphics/SVG/1.1/DTD/svg11.dtd">
<svg version="1.1" xmlns="http://www.w3.org/2000/svg" xmlns:xlink="http://www.w3.org/1999/xlink" x="0px" y="0px"
	 width="149.333px" height="270px" viewBox="0 0 149.333 270" enable-background="new 0 0 149.333 270" xml:space="preserve">
<g id="Background" display="none">
	
		<rect x="-222.5" y="-149.167" display="inline" fill="#074E68" stroke="#000000" stroke-miterlimit="10" width="974" height="570"/>
</g>
<g id="Stars" display="none">
	<circle display="inline" opacity="0.6" fill="#028CB9" enable-background="new    " cx="143.5" cy="122.333" r="1.5"/>
	<circle display="inline" opacity="0.6" fill="#028CB9" enable-background="new    " cx="77" cy="92.333" r="1.5"/>
	<circle display="inline" opacity="0.6" fill="#028CB9" enable-background="new    " cx="107" cy="141.333" r="1.5"/>
	<g display="inline" opacity="0.6">
		<circle opacity="0.05" fill="#FFFFFF" enable-background="new    " cx="150.486" cy="182.375" r="5.485"/>
		<circle fill="#9FD2E7" cx="150.486" cy="182.375" r="1.94"/>
	</g>
	<circle display="inline" opacity="0.6" fill="#028CB9" enable-background="new    " cx="25.815" cy="163.054" r="1.5"/>
	<circle display="inline" opacity="0.6" fill="#028CB9" enable-background="new    " cx="9.862" cy="91.42" r="1.5"/>
	<g display="inline" opacity="0.6">
		<circle opacity="0.05" fill="#FFFFFF" enable-background="new    " cx="8.468" cy="75.214" r="5.486"/>
		<circle fill="#9FD2E7" cx="8.468" cy="75.213" r="1.94"/>
	</g>
	<g display="inline" opacity="0.6">
		<circle opacity="0.05" fill="#FFFFFF" enable-background="new    " cx="-2.093" cy="83.902" r="2.156"/>
	</g>
	<circle display="inline" opacity="0.6" fill="#028CB9" enable-background="new    " cx="107" cy="1.333" r="1.5"/>
	<g display="inline" opacity="0.6">
		<circle opacity="0.05" fill="#FFFFFF" enable-background="new    " cx="150.486" cy="42.375" r="5.485"/>
		<circle fill="#9FD2E7" cx="150.486" cy="42.375" r="1.94"/>
	</g>
	<circle display="inline" opacity="0.6" fill="#028CB9" enable-background="new    " cx="25.815" cy="23.054" r="1.5"/>
</g>
<g id="Layer_3">
	
		<ellipse transform="matrix(0.9999 0.0173 -0.0173 0.9999 4.4035 -1.0621)" fill="#064157" cx="63.535" cy="253.765" rx="45.064" ry="12.901"/>
	<path fill="#3FC487" d="M87.707,179.265c-0.896-4.844,3.627-22.878,8.959-10.996c4.977,11.09-1.786,26.064-6.262,39.731
		c-3.141,9.588-16.312,32.423-4.589,41.111c5.344,3.961,13.846,2.581,19.93,0.735c-10.044,5.355-22.427,9.862-30.345-2.252
		c-6.186-9.464,3.163-21.847,6.662-30.929c4.451-11.548,4.658-23.109,3.535-35.405C85.092,175.729,90.825,196.113,87.707,179.265z"
		/>
	<path fill="#1F6143" d="M140.303,88.282c6.945,36.32-21.416,68.661-29.561,81.472c-6.777,10.658-6.774,25.851-18.588,28.109
		c-12.9,2.468-23.169-17.162-31.654-22.68c-21.759-14.148-46.885-26.665-53.528-61.405c-6.15-32.16,15.329-61.218,28.574-82.005
		c8.78-13.78,4.897-24.769,19.575-27.576c13.762-2.632,19.116,9.697,31.719,18.045C107.955,36.228,133.898,54.792,140.303,88.282z"
		/>
	<g>
		<path fill="none" d="M85.815,249.112c-5.864-4.346-5.5-12.23-3.277-20.227c-0.922,0.35-1.847,0.676-2.776,0.955
			c-1.437,0.432-2.845,0.764-4.222,1.004c-2.311,5.784-3.451,11.686-0.14,16.751c7.918,12.114,20.301,7.607,30.346,2.252
			C99.662,251.693,91.159,253.073,85.815,249.112z"/>
		
			<linearGradient id="SVGID_1_" gradientUnits="userSpaceOnUse" x1="82.2432" y1="203.271" x2="101.728" y2="203.271" gradientTransform="matrix(2.5803 -1.0082 0.3898 0.9831 -229.7813 89.8175)">
			<stop  offset="0" style="stop-color:#2B875C"/>
			<stop  offset="1" style="stop-color:#000000"/>
		</linearGradient>
		<path opacity="0.6" fill="url(#SVGID_1_)" d="M82.538,228.885c2.221-7.99,6.296-16.093,7.866-20.885
			c4.477-13.667,11.238-28.642,6.262-39.731c-5.332-11.882-9.855,6.152-8.959,10.996c3.117,16.848-2.615-3.536-2.109,1.996
			c1.123,12.296,0.916,23.857-3.535,35.405c-1.627,4.221-4.516,9.155-6.522,14.178c1.377-0.24,2.785-0.572,4.222-1.004
			C80.691,229.561,81.616,229.235,82.538,228.885z"/>
	</g>
	<g>
		<path fill="#36A874" d="M142.303,88.282c6.945,36.32-21.416,68.661-29.561,81.472c-6.776,10.658-6.774,25.851-18.587,28.109
			c-12.901,2.468-23.169-17.162-31.655-22.68c-21.759-14.148-46.885-26.665-53.528-61.405c-6.15-32.16,15.329-61.218,28.574-82.005
			c8.78-13.78,4.897-24.769,19.575-27.576c13.762-2.632,19.115,9.697,31.719,18.045C109.956,36.228,135.898,54.792,142.303,88.282z"
			/>
		<path fill="#52FFBD" d="M142.401,88.265c0,0,0.08,0.483,0.235,1.416c0.077,0.466,0.173,1.045,0.288,1.733
			c0.103,0.69,0.171,1.499,0.276,2.41c0.343,3.639,0.631,9.062-0.383,15.847c-0.938,6.78-3.169,14.881-7.115,23.568
			c-3.882,8.722-9.532,17.931-16.185,27.576c-1.658,2.416-3.384,4.858-5.062,7.382c-0.419,0.622-0.838,1.289-1.224,1.896
			c-0.381,0.667-0.764,1.338-1.148,2.011c-0.331,0.681-0.664,1.364-0.998,2.05c-0.305,0.711-0.611,1.425-0.918,2.141
			c-1.179,2.896-2.166,5.941-3.335,9.014c-1.182,3.054-2.533,6.214-4.817,8.938c-2.23,2.786-5.851,4.491-9.466,4.767
			c-3.824,0.234-7.407-1.311-10.402-3.357c-6.036-4.17-10.528-10.024-15.561-15.17c-1.257-1.281-2.559-2.513-3.937-3.544
			c-0.349-0.258-0.685-0.48-1.058-0.723l-1.175-0.737l-2.357-1.479c-3.155-1.969-6.333-3.951-9.531-5.946
			c-6.363-4.083-12.711-8.505-18.526-13.745l-1.097-0.974l-1.045-1.036l-2.093-2.076c-1.369-1.413-2.629-2.941-3.951-4.412
			c-1.185-1.587-2.435-3.134-3.562-4.77l-1.609-2.516c-0.532-0.842-1.1-1.664-1.535-2.563c-3.917-6.977-6.504-14.609-8.011-22.499
			C5.686,105.599,5.893,97.4,7.384,89.607c1.478-7.822,4.152-15.298,7.409-22.357c3.27-7.063,7.099-13.749,11.138-20.146
			c2.024-3.197,4.091-6.331,6.146-9.429c1.025-1.548,2.047-3.09,3.064-4.627c0.489-0.756,1.042-1.566,1.475-2.273
			c0.469-0.786,0.963-1.572,1.408-2.353c1.7-3.035,2.998-6.402,4.159-9.77c0.583-1.687,1.182-3.404,1.865-5.1
			c0.745-1.682,1.542-3.387,2.761-4.871c1.22-1.445,2.688-2.762,4.385-3.54c1.65-0.88,3.417-1.366,5.156-1.741
			c0.243-0.052,0.378-0.099,0.709-0.154l0.64-0.076l1.275-0.153c0.41-0.071,0.875-0.065,1.337-0.059l1.375,0.012
			c0.904,0.059,1.781,0.223,2.66,0.363L65.629,3.7c0.427,0.119,0.854,0.237,1.251,0.428c3.286,1.308,6.003,3.445,8.455,5.624
			c2.455,2.197,4.707,4.477,7.036,6.578c2.319,2.117,4.711,4.024,7.212,5.731c2.521,1.706,4.979,3.412,7.377,5.103
			c4.78,3.399,9.235,6.835,13.348,10.252c4.125,3.409,7.75,6.973,11.05,10.412c6.471,7.018,11.102,14.02,14.153,20.141
			c1.621,3.021,2.627,5.917,3.655,8.367c0.78,2.541,1.532,4.676,1.981,6.451C141.965,86.358,142.401,88.265,142.401,88.265z
			 M142.204,88.3c0,0-0.443-1.896-1.274-5.455c-0.456-1.768-1.215-3.894-2.003-6.422c-1.035-2.438-2.05-5.318-3.678-8.321
			c-3.066-6.085-7.707-13.038-14.183-20c-3.304-3.413-6.93-6.948-11.057-10.328c-4.107-3.399-8.591-6.772-13.395-10.113
			c-4.754-3.389-10.11-6.427-14.773-10.735c-2.368-2.093-4.651-4.354-7.097-6.498c-2.442-2.129-5.105-4.162-8.219-5.363
			c-3.104-1.266-6.6-1.311-9.939-0.581c-3.319,0.687-6.673,2.164-8.819,4.952c-2.147,2.777-3.168,6.258-4.324,9.643
			c-1.139,3.41-2.403,6.833-4.17,10.07c-1.782,3.198-3.894,6.246-5.887,9.375c-2.021,3.118-4.048,6.263-6.029,9.464
			c-3.959,6.398-7.744,13.026-10.932,20.008c-3.183,6.975-5.77,14.322-7.178,21.956c-1.419,7.621-1.588,15.524-0.179,23.188
			c1.442,7.641,3.927,15.122,7.702,21.899c0.418,0.876,0.968,1.677,1.481,2.497l1.553,2.452c1.09,1.597,2.301,3.105,3.446,4.657
			c1.285,1.438,2.504,2.934,3.836,4.32l2.039,2.039l1.018,1.018l1.072,0.959c5.675,5.166,11.931,9.553,18.233,13.659
			c3.173,2.026,6.328,4.04,9.459,6.04c1.554,1.028,3.142,1.952,4.652,3.055c1.477,1.132,2.803,2.421,4.073,3.742
			c5.047,5.287,9.445,11.108,15.21,15.169c2.845,1.996,6.2,3.431,9.618,3.254c3.384-0.239,6.672-1.734,8.794-4.319
			c2.171-2.532,3.537-5.594,4.735-8.604c1.189-3.028,2.212-6.075,3.436-8.992c0.319-0.724,0.638-1.443,0.954-2.161
			c0.353-0.703,0.703-1.403,1.052-2.1c0.392-0.67,0.781-1.336,1.169-2c0.424-0.653,0.835-1.293,1.269-1.922
			c1.715-2.521,3.465-4.942,5.146-7.338c6.77-9.543,12.404-18.722,16.319-27.391c3.97-8.639,6.226-16.697,7.189-23.445
			c1.04-6.75,0.776-12.157,0.451-15.78c-0.101-0.907-0.165-1.71-0.264-2.4c-0.111-0.689-0.205-1.268-0.28-1.735
			C142.282,88.78,142.204,88.3,142.204,88.3z"/>
	</g>
	<path fill="#43D191" d="M138.858,89.068c6.146,32.142-19.062,60.782-26.304,72.127c-6.026,9.437-6.033,22.885-16.525,24.891
		c-11.459,2.192-20.568-15.176-28.101-20.055c-19.317-12.509-41.624-23.572-47.502-54.315
		c-5.443-28.461,13.651-54.193,25.427-72.599c7.807-12.203,4.364-21.926,17.402-24.419c12.224-2.337,16.973,8.571,28.161,15.953
		C110.161,43.016,133.191,59.43,138.858,89.068z"/>
	<g>
		<path fill="none" d="M137.858,89.068c-5.667-29.638-28.697-46.052-47.442-58.417c-10.248-6.762-15.098-16.475-25.235-16.264
			c5.991,11.739,11.456,24.355,16.213,37.683c18.111,50.737,21.808,100.015,12.692,134.147c0.312-0.031,0.626-0.071,0.942-0.132
			c10.492-2.006,10.5-15.454,16.525-24.891C118.796,149.85,144.004,121.209,137.858,89.068z"/>
		<path fill="#3FC487" d="M81.395,52.07c-4.757-13.328-10.223-25.944-16.213-37.683c-0.929,0.02-1.899,0.115-2.926,0.311
			c-13.038,2.494-9.596,12.217-17.402,24.419c-11.776,18.406-30.87,44.137-25.427,72.599c5.879,30.743,28.186,41.806,47.502,54.315
			c7.325,4.744,16.141,21.292,27.159,20.187C103.202,152.084,99.505,102.807,81.395,52.07z"/>
	</g>
	<polygon fill="#3AB57D" points="99.921,105.539 94.854,103.21 94.404,97.272 102.948,98.948 	"/>
	<polygon fill="#3AB57D" points="95.854,105.21 92.023,106.345 87.561,102.401 91.998,97.645 	"/>
	<polygon fill="#FFFFFF" points="104.073,105.539 98.853,104.21 98.404,98.272 106.948,99.948 	"/>
	<polygon fill="#FFFFFF" points="98.853,104.21 95.023,105.345 90.561,101.401 94.998,96.645 	"/>
	<path fill="#3BB87E" d="M64.627,93.92c-3.704,3.845-15.331,11.582-19.627,8.413c-7.659-5.649,4-37.859,4-37.859l29,10.299
		C78,74.773,68.678,89.716,64.627,93.92z"/>
	<path fill="#3FC487" d="M114.746,117.048c1.417,8.728-20.409,62.399-30.128,52.286c-9.011-9.377-14.948-36.015-16.364-44.744
		c-1.416-8.729,7.844-17.494,20.682-19.577C101.774,102.93,113.329,108.318,114.746,117.048z"/>
	<g>
		<path fill="#23704D" d="M109.391,134.565c0,0,0.133-0.329,0.381-0.946c0.264-0.61,0.597-1.536,1.022-2.673
			c0.41-1.15,0.869-2.561,1.294-4.17c0.098-0.403,0.199-0.819,0.302-1.247c0.08-0.429,0.162-0.87,0.246-1.323
			c0.077-0.452,0.186-0.897,0.338-1.349c0.141-0.454,0.207-0.929,0.309-1.41c0.328-1.924,0.39-4.048-0.148-6.107
			c-0.505-2.068-1.736-4.001-3.548-5.475c-1.812-1.476-4.155-2.509-6.681-3.064c-2.525-0.576-5.22-0.732-7.903-0.577
			c-5.376,0.316-10.696,1.854-15.24,4.095c-4.569,2.222-8.339,5.192-11.032,8.168c-0.328,0.38-0.653,0.749-0.953,1.125
			c-0.269,0.399-0.559,0.765-0.898,1.083c-0.631,0.669-1.221,1.322-1.737,1.971c-1.022,1.3-1.881,2.498-2.488,3.547
			c-0.618,1.043-1.091,1.894-1.367,2.493c-0.289,0.598-0.442,0.917-0.442,0.917s0.053-0.351,0.152-1.009
			c0.045-0.333,0.111-0.741,0.219-1.215c0.097-0.478,0.21-1.031,0.396-1.632c0.319-1.224,0.839-2.68,1.588-4.302
			c0.374-0.813,0.821-1.654,1.319-2.536c0.498-0.885,1.292-1.604,1.986-2.454c2.948-3.259,7.034-6.465,11.936-8.849
			c4.883-2.404,10.551-4.051,16.39-4.397c2.916-0.167,5.876-0.004,8.742,0.647c2.857,0.632,5.64,1.817,7.913,3.667
			c2.277,1.833,3.916,4.411,4.551,7.034c0.681,2.619,0.578,5.165,0.205,7.372c-0.236,1.096-0.351,2.172-0.742,3.114
			c-0.209,0.46-0.414,0.908-0.612,1.344c-0.219,0.421-0.432,0.83-0.639,1.226c-0.839,1.568-1.695,2.837-2.424,3.86
			c-0.732,1.029-1.352,1.78-1.782,2.288C109.617,134.292,109.391,134.565,109.391,134.565z"/>
	</g>
	<path fill="#3FC487" d="M109.419,81.889c3.489,0.703,12.786,2.142,14.191-1.128c2.505-5.83-14.112-21.095-14.112-21.095
		L95.586,74.743C95.586,74.743,105.604,81.121,109.419,81.889z"/>
	<g>
		<line fill="#40C78A" x1="74.377" y1="73.619" x2="62.649" y2="79.842"/>
		<polygon fill="#298059" points="75.315,75.386 62.649,79.842 73.44,71.853 		"/>
	</g>
	<path fill="#2E9164" d="M75.185,241.454c-1.089,3.683-3.131,6.538-6.942,7.427c-5.098,1.188-10.657-2.393-14.35-5.566
		c5.33,6.885,12.596,13.878,22.224,7.669c2.677-1.728,4.142-4.148,4.946-6.89L75.185,241.454z"/>
	<g>
		<line fill="#40C78A" x1="99.648" y1="70.619" x2="108.599" y2="75.368"/>
		<polygon fill="#298059" points="100.352,69.294 108.599,75.368 98.945,71.944 		"/>
	</g>
	<polygon fill="#133B29" points="94.818,76.193 115.391,58.747 111.541,52.756 93.001,73.366 	"/>
	<polygon fill="#133B29" points="80.382,78.023 43.383,65.424 47.607,55.267 82.375,73.228 	"/>
	<polygon fill="#216947" points="81.767,73.501 45.383,59.424 46.979,55.586 82.52,71.69 	"/>
	<polygon fill="#216947" points="94.139,73.392 112.303,53.451 110.71,51.559 93.166,72.237 	"/>
	<path fill="#3FC487" d="M73.338,240.344c1.26,4.681,0.652,9.146-2.763,12.62c-4.567,4.646-12.726,4.464-18.665,3.489
		c10.073,3.886,22.247,6.61,28.287-6.428c1.68-3.627,1.323-6.824,0.69-10.681L73.338,240.344z"/>
	<g>
		<g>
			<path fill="#23704D" d="M85.982,198.401c0,0,0.051,0.127,0.125,0.351c0.027,0.118,0.109,0.231,0.162,0.369
				c0.05,0.134,0.167,0.277,0.245,0.436c0.114,0.146,0.213,0.31,0.354,0.461c0.128,0.16,0.289,0.304,0.445,0.46
				c0.337,0.289,0.71,0.584,1.13,0.818c0.827,0.489,1.757,0.84,2.487,1.074c0.367,0.104,0.679,0.213,0.904,0.269
				c0.223,0.065,0.354,0.112,0.354,0.112s-0.13,0.038-0.363,0.087c-0.233,0.056-0.57,0.092-0.98,0.1
				c-0.409-0.002-0.892-0.04-1.394-0.171c-0.51-0.108-1.022-0.344-1.517-0.61c-0.237-0.154-0.472-0.311-0.686-0.494
				c-0.225-0.165-0.401-0.389-0.579-0.586c-0.172-0.208-0.313-0.428-0.424-0.649c-0.128-0.21-0.188-0.444-0.256-0.644
				c-0.043-0.214-0.095-0.394-0.092-0.576c-0.003-0.176-0.016-0.328,0.012-0.44C85.95,198.534,85.982,198.401,85.982,198.401z"/>
		</g>
		<g>
			<path fill="#23704D" d="M85.087,205.785c0,0,0.05,0.089,0.123,0.245c0.093,0.136,0.212,0.296,0.406,0.461
				c0.183,0.162,0.421,0.317,0.696,0.462c0.272,0.143,0.574,0.29,0.896,0.402c0.311,0.141,0.645,0.234,0.954,0.353
				c0.315,0.101,0.614,0.199,0.876,0.293c0.524,0.171,0.899,0.333,0.899,0.333s-0.37,0.176-0.958,0.238
				c-0.584,0.069-1.387,0.012-2.141-0.287c-0.372-0.155-0.737-0.351-1.032-0.613c-0.301-0.249-0.54-0.554-0.663-0.858
				c-0.14-0.288-0.148-0.586-0.132-0.765C85.054,205.881,85.087,205.785,85.087,205.785z"/>
		</g>
		<g>
			<path fill="#23704D" d="M83.54,212.327c0,0,0.055,0.067,0.136,0.188c0.038,0.061,0.085,0.133,0.138,0.217
				c0.064,0.049,0.138,0.104,0.217,0.165c0.05,0.054,0.159,0.104,0.254,0.166c0.1,0.058,0.182,0.126,0.304,0.175
				c0.113,0.057,0.233,0.102,0.34,0.171l0.379,0.148c0.24,0.128,0.523,0.182,0.762,0.306c0.257,0.075,0.496,0.176,0.707,0.269
				c0.427,0.142,0.734,0.327,0.734,0.327s-0.304,0.152-0.794,0.244c-0.243,0.034-0.532,0.035-0.841,0.02
				c-0.306-0.053-0.634-0.105-0.948-0.241l-0.456-0.223c-0.146-0.095-0.273-0.211-0.401-0.311c-0.135-0.087-0.226-0.244-0.319-0.365
				c-0.093-0.122-0.173-0.237-0.216-0.398c-0.052-0.144-0.078-0.273-0.096-0.378c0.001-0.099,0.028-0.184,0.04-0.255
				C83.513,212.41,83.54,212.327,83.54,212.327z"/>
		</g>
		<g>
			<path fill="#23704D" d="M81.062,219.036c0,0,0.046,0.079,0.13,0.198c0.092,0.099,0.214,0.226,0.388,0.365
				c0.333,0.275,0.809,0.576,1.289,0.785c0.237,0.117,0.487,0.182,0.726,0.249c0.124,0.022,0.243,0.045,0.356,0.066
				c0.115,0,0.23,0.021,0.34,0.029c0.215-0.004,0.417,0.006,0.558-0.014c0.145-0.008,0.238-0.007,0.238-0.007
				c-0.008-0.017-0.172,0.323-0.657,0.578c-0.24,0.121-0.556,0.217-0.905,0.224c-0.171-0.01-0.358,0.006-0.533-0.049
				c-0.18-0.034-0.353-0.097-0.524-0.162c-0.673-0.302-1.174-0.867-1.359-1.38c-0.055-0.121-0.081-0.248-0.098-0.357
				c-0.026-0.102-0.014-0.225-0.013-0.298C81.024,219.116,81.067,219.037,81.062,219.036z"/>
		</g>
		<g>
			<path fill="#23704D" d="M77.497,226.424c0,0,0.017,0.02,0.048,0.056c0.022,0.046,0.103,0.069,0.155,0.099
				c0.139,0.064,0.351,0.151,0.604,0.237c0.251,0.09,0.549,0.174,0.858,0.269c0.316,0.073,0.64,0.182,0.972,0.226
				c0.328,0.081,0.655,0.099,0.965,0.135c0.309,0.01,0.599,0.004,0.861-0.016c0.254-0.038,0.488-0.061,0.646-0.108
				c0.164-0.034,0.269-0.05,0.269-0.05c-0.01-0.02-0.185,0.377-0.725,0.701c-0.266,0.157-0.613,0.288-1,0.352
				c-0.191,0.013-0.395,0.05-0.597,0.034c-0.2-0.018-0.409-0.023-0.607-0.066c-0.805-0.156-1.518-0.566-1.948-0.993
				c-0.222-0.206-0.366-0.423-0.45-0.593C77.454,226.509,77.509,226.43,77.497,226.424z"/>
		</g>
		<g>
			<path fill="#38B37A" d="M74.311,234.359c-0.009,0,0.105,0.113,0.28,0.19c0.193,0.103,0.461,0.245,0.789,0.398
				c0.324,0.157,0.707,0.317,1.107,0.479c0.41,0.133,0.834,0.309,1.267,0.36c0.214,0.065,0.425,0.052,0.636,0.083
				c0.203-0.025,0.415,0.012,0.605-0.034c0.188-0.052,0.391-0.05,0.558-0.135c0.169-0.071,0.354-0.108,0.494-0.207
				c0.154-0.085,0.294-0.163,0.419-0.231c0.118-0.089,0.221-0.167,0.305-0.23c0.178-0.127,0.292-0.199,0.292-0.199
				s-0.042,0.118-0.137,0.324c-0.086,0.215-0.242,0.504-0.531,0.794c-0.124,0.167-0.313,0.286-0.512,0.42
				c-0.191,0.153-0.435,0.23-0.686,0.321c-0.25,0.087-0.525,0.117-0.801,0.144c-0.27-0.02-0.559,0-0.822-0.066
				c-1.086-0.207-1.979-0.812-2.524-1.356c-0.282-0.264-0.474-0.533-0.596-0.723C74.311,234.471,74.311,234.359,74.311,234.359z"/>
		</g>
		<g>
			<path fill="#38B37A" d="M73.639,241.643c0,0,0.021,0.031,0.061,0.089c0.031,0.066,0.135,0.114,0.209,0.186
				c0.201,0.14,0.49,0.333,0.856,0.529c0.36,0.203,0.795,0.403,1.256,0.601c0.471,0.173,0.967,0.362,1.479,0.443
				c0.251,0.067,0.507,0.072,0.758,0.107c0.247-0.026,0.5,0.032,0.734-0.018c0.233-0.042,0.475-0.038,0.684-0.116
				c0.211-0.066,0.433-0.094,0.61-0.188c0.19-0.078,0.365-0.149,0.52-0.213c0.148-0.085,0.278-0.158,0.385-0.219
				c0.229-0.118,0.359-0.186,0.359-0.186s-0.075,0.123-0.227,0.334c-0.077,0.104-0.17,0.234-0.288,0.376
				c-0.129,0.127-0.287,0.263-0.466,0.406c-0.169,0.163-0.397,0.268-0.635,0.391c-0.233,0.14-0.51,0.208-0.796,0.283
				c-0.285,0.085-0.592,0.09-0.902,0.114c-0.305-0.025-0.625-0.023-0.926-0.092c-0.303-0.068-0.602-0.146-0.881-0.26
				c-0.29-0.09-0.54-0.251-0.794-0.376c-0.487-0.289-0.907-0.607-1.216-0.935c-0.322-0.312-0.533-0.63-0.663-0.86
				C73.615,241.777,73.647,241.648,73.639,241.643z"/>
		</g>
		<g>
			<path fill="#38B37A" d="M78.188,250.708c0,0,0.127-0.01,0.346-0.011c0.109,0.001,0.242,0,0.391,0.01
				c0.148-0.002,0.325,0.034,0.498,0.015c0.176-0.011,0.361-0.022,0.552-0.02c0.191,0.015,0.391-0.034,0.595-0.059
				c0.202-0.034,0.418-0.032,0.613-0.111c0.197-0.068,0.408-0.104,0.599-0.19c0.189-0.093,0.379-0.186,0.566-0.276
				c0.174-0.122,0.347-0.243,0.513-0.359c0.351-0.22,0.601-0.546,0.889-0.755c0.472-0.518,0.869-0.857,0.869-0.857
				s-0.025,0.122-0.087,0.333c-0.066,0.209-0.155,0.516-0.317,0.86c-0.095,0.165-0.202,0.345-0.327,0.528
				c-0.119,0.188-0.246,0.389-0.44,0.548c-0.185,0.163-0.355,0.366-0.575,0.513c-0.235,0.129-0.474,0.26-0.712,0.391
				c-0.252,0.1-0.525,0.142-0.783,0.21c-0.258,0.088-0.521,0.034-0.769,0.044c-0.498,0.024-0.948-0.145-1.315-0.242
				c-0.191-0.041-0.326-0.142-0.465-0.203c-0.133-0.072-0.25-0.135-0.345-0.187C78.293,250.78,78.188,250.708,78.188,250.708z"/>
		</g>
		<g>
			<path fill="#38B37A" d="M86.25,254.896c0,0,0.333-0.256,0.862-0.516c0.244-0.157,0.545-0.283,0.835-0.454
				c0.147-0.081,0.293-0.175,0.449-0.249l0.417-0.288c0.145-0.088,0.256-0.213,0.386-0.314c0.132-0.1,0.236-0.23,0.349-0.347
				c0.11-0.119,0.23-0.228,0.318-0.358c0.092-0.125,0.191-0.239,0.286-0.347c0.331-0.457,0.627-0.766,0.627-0.766
				s0.004,0.103-0.006,0.281c-0.016,0.178-0.026,0.438-0.104,0.733c-0.098,0.291-0.18,0.652-0.416,0.983
				c-0.116,0.163-0.2,0.363-0.37,0.5c-0.157,0.145-0.302,0.316-0.479,0.44c-0.185,0.111-0.37,0.222-0.553,0.331
				c-0.187,0.087-0.384,0.143-0.566,0.21c-0.369,0.126-0.729,0.157-1.029,0.196C86.665,254.964,86.25,254.896,86.25,254.896z"/>
		</g>
		<g>
			<path fill="#38B37A" d="M71.976,251.257c0,0,0.05,0.104,0.122,0.289c0.081,0.182,0.209,0.387,0.384,0.629
				c0.189,0.23,0.427,0.466,0.706,0.692c0.291,0.215,0.613,0.43,0.962,0.609c0.346,0.188,0.713,0.346,1.065,0.49
				c0.354,0.143,0.697,0.258,0.997,0.369c0.309,0.103,0.566,0.188,0.746,0.247c0.185,0.063,0.293,0.109,0.293,0.109
				s-0.431,0.178-1.116,0.213c-0.341,0.014-0.744-0.004-1.167-0.093c-0.427-0.078-0.865-0.247-1.288-0.453
				c-0.409-0.236-0.801-0.518-1.101-0.858c-0.299-0.344-0.509-0.727-0.611-1.076c-0.098-0.347-0.1-0.671-0.067-0.864
				C71.942,251.369,71.976,251.257,71.976,251.257z"/>
		</g>
		<g>
			<path fill="#38B37A" d="M66.662,255.565c0,0,0.185,0.293,0.329,0.739c0.101,0.208,0.197,0.433,0.279,0.675
				c0.132,0.229,0.181,0.511,0.325,0.736c0.092,0.258,0.23,0.471,0.341,0.692c0.056,0.113,0.131,0.187,0.189,0.287
				c0.06,0.101,0.121,0.187,0.192,0.248c0.07,0.077,0.135,0.148,0.192,0.211c0.069,0.039,0.132,0.086,0.188,0.124
				c0.121,0.085,0.19,0.134,0.19,0.134s-0.072,0.03-0.221,0.062c-0.074,0.015-0.17,0.034-0.283,0.042
				c-0.104-0.012-0.224-0.038-0.355-0.077c-0.142-0.028-0.277-0.087-0.396-0.182c-0.121-0.088-0.284-0.168-0.382-0.295
				c-0.231-0.235-0.43-0.525-0.566-0.833c-0.157-0.306-0.204-0.636-0.268-0.938c-0.028-0.314-0.024-0.613,0.003-0.853
				C66.513,255.877,66.662,255.565,66.662,255.565z"/>
		</g>
	</g>
	<path fill="#43D191" d="M61.019,135.308c-9.519,7.526-1.724-3.551-4.395-6.585c-2.672-3.034-6.957-4.889-2-5.573
		c2.409-0.333,4.016-0.886,6.687,2.147C63.982,128.332,62.925,133.8,61.019,135.308z"/>
	<g>
		<path fill="#298059" d="M55.663,123.058c0,0,0.279-0.036,0.746-0.047c0.231-0.004,0.511-0.017,0.845,0.061
			c0.329,0.06,0.74,0.118,1.114,0.277c0.396,0.132,0.829,0.293,1.235,0.562c0.435,0.228,0.851,0.549,1.256,0.913
			c0.365,0.398,0.813,0.779,1.095,1.292c0.331,0.48,0.581,1.021,0.818,1.562l0.246,0.848c0.063,0.285,0.108,0.57,0.159,0.852
			c0.067,0.28,0.058,0.563,0.059,0.841c0,0.277,0.009,0.55-0.025,0.813c-0.024,0.53-0.139,1.03-0.274,1.485
			c-0.096,0.464-0.303,0.87-0.469,1.24c-0.147,0.376-0.384,0.683-0.557,0.958c-0.165,0.279-0.372,0.494-0.529,0.672
			c-0.324,0.352-0.534,0.53-0.535,0.53l-0.187-0.071c0,0,0.074-0.229,0.204-0.629c0.065-0.2,0.149-0.441,0.21-0.728
			c0.06-0.287,0.167-0.602,0.211-0.958c0.051-0.356,0.133-0.738,0.146-1.149c0.043-0.41,0.043-0.842,0.024-1.289
			c-0.019-0.445-0.074-0.905-0.166-1.362l-0.161-0.686l-0.229-0.67c-0.176-0.437-0.347-0.882-0.597-1.275
			c-0.216-0.415-0.512-0.77-0.776-1.126c-0.307-0.322-0.583-0.656-0.906-0.909c-0.3-0.281-0.617-0.503-0.914-0.705
			c-0.286-0.219-0.584-0.357-0.834-0.505c-0.248-0.151-0.483-0.255-0.678-0.339c-0.387-0.173-0.608-0.271-0.608-0.271
			L55.663,123.058z"/>
	</g>
</g>
</svg>
