<?xml version="1.0" encoding="utf-8"?>
<!-- Generator: Adobe Illustrator 16.0.0, SVG Export Plug-In . SVG Version: 6.00 Build 0)  -->
<!DOCTYPE svg PUBLIC "-//W3C//DTD SVG 1.1//EN" "http://www.w3.org/Graphics/SVG/1.1/DTD/svg11.dtd">
<svg version="1.1" xmlns="http://www.w3.org/2000/svg" xmlns:xlink="http://www.w3.org/1999/xlink" x="0px" y="0px"
	 width="437.066px" height="419.333px" viewBox="0 0 437.066 419.333" enable-background="new 0 0 437.066 419.333"
	 xml:space="preserve">
<g id="Background" display="none">
	
		<image display="inline" overflow="visible" width="1114" height="1027" xlink:href="Screen Shot 2014-01-11 at 11.56.14 AM.png"  transform="matrix(1 0 0 1 -606 -117.6665)">
	</image>
</g>
<g id="Vines">
	<path fill="#0F4357" d="M296.305,237.764l-0.082,1.964c-0.563,20.955-3.507,41.173-8.182,60.017
		c-4.666,18.853-11.063,36.322-18.286,52.01c-0.925,1.955-1.841,3.889-2.745,5.802c-0.904,1.915-1.785,3.815-2.802,5.636
		c-1.966,3.673-3.886,7.261-5.758,10.76c-4.1,6.844-7.869,13.413-11.984,19.31c-0.997,1.491-1.979,2.958-2.942,4.401
		c-0.484,0.721-0.966,1.435-1.442,2.143c-0.511,0.69-1.017,1.374-1.517,2.052c-2.01,2.712-3.945,5.327-5.807,7.84
		c-1.811,2.545-3.8,4.836-5.609,7.082c-1.183,1.443-2.316,2.827-3.427,4.183h-57.565l-0.381-0.297c0,0,2.117-1.937,6.085-5.566
		c0.992-0.908,2.1-1.922,3.319-3.038c0.604-0.556,1.238-1.138,1.898-1.744c0.568-0.573,1.16-1.171,1.774-1.791
		c1.234-1.24,2.56-2.572,3.975-3.993c0.71-0.71,1.442-1.443,2.196-2.197c0.753-0.762,1.545-1.501,2.312-2.388
		c1.559-1.72,3.199-3.532,4.921-5.432c1.706-1.911,3.592-3.852,5.304-6.033c1.77-2.15,3.611-4.387,5.521-6.707
		c0.479-0.58,0.961-1.165,1.449-1.756c0.455-0.608,0.915-1.223,1.378-1.842c0.925-1.241,1.865-2.503,2.82-3.787
		c3.959-5.064,7.602-10.755,11.615-16.682c1.841-3.043,3.729-6.165,5.662-9.36c1.007-1.583,1.88-3.244,2.779-4.919
		c0.905-1.673,1.819-3.365,2.743-5.074c7.241-13.735,13.872-29.155,19.036-45.96c5.173-16.796,8.876-34.967,10.467-53.964
		l0.18-1.782l0.091-1.788c0.057-1.194,0.114-2.39,0.172-3.589c0.117-2.4,0.235-4.809,0.354-7.226
		c-0.006-2.419-0.013-4.847-0.02-7.283c-0.003-1.219-0.006-2.44-0.009-3.664l-0.008-1.836l-0.103-1.835
		c-0.135-2.451-0.27-4.909-0.403-7.375c-0.079-1.232-0.106-2.472-0.226-3.704c-0.134-1.232-0.267-2.465-0.399-3.701
		c-0.264-2.473-0.528-4.952-0.793-7.437c-0.307-2.48-0.773-4.947-1.151-7.433c-1.475-9.953-3.973-19.836-6.734-29.71
		c-0.751-2.454-1.601-4.885-2.396-7.334c-0.838-2.438-1.535-4.922-2.547-7.313c-1.924-4.811-3.659-9.703-5.948-14.405
		c-8.585-19.002-19.693-37.235-33.365-53.577c-1.721-2.035-3.439-4.067-5.153-6.094c-0.434-0.504-0.847-1.022-1.295-1.515
		l-1.376-1.455l-2.748-2.908c-1.778-1.877-3.553-3.75-5.32-5.618l-3.019-2.861c-0.523-0.516-0.958-0.861-1.414-1.25l-1.356-1.157
		l-1.355-1.163l-1.503-1.149c-1.016-0.75-1.967-1.571-3.026-2.268c-1.044-0.717-2.086-1.433-3.127-2.147
		c-1.066-0.684-2.161-1.328-3.238-1.998c-4.376-2.572-8.931-4.89-13.691-6.769c-4.762-1.873-9.661-3.409-14.638-4.61
		c-4.998-1.134-10.058-1.925-15.121-2.402c-5.07-0.448-10.136-0.495-15.14-0.305c-5.006,0.233-9.93,0.839-14.758,1.631
		c-9.61,1.767-18.774,4.529-27.089,8.248c-8.342,3.667-15.935,8.097-22.594,13.04c-1.639,1.261-3.334,2.444-4.853,3.767
		c-0.776,0.645-1.55,1.286-2.318,1.924l-0.577,0.478c0.344-0.333,0.016-0.016,0.056-0.055l-0.14,0.134l-0.28,0.269l-1.113,1.068
		l-1.108,1.062c-0.176,0.174-0.385,0.358-0.534,0.523l-0.396,0.472c-0.539,0.625-1.074,1.245-1.606,1.862
		c-0.281,0.288-0.525,0.649-0.771,1.001l-0.744,1.049c-0.484,0.702-1.034,1.37-1.411,2.113c-0.417,0.727-0.833,1.448-1.245,2.164
		c-0.422,0.715-0.688,1.481-1.043,2.212c-0.741,1.456-1.164,2.98-1.685,4.461c-0.144,0.368-0.24,0.743-0.315,1.122l-0.258,1.126
		c-0.149,0.75-0.397,1.486-0.472,2.235c-0.151,1.495-0.467,2.968-0.424,4.427c-0.2,5.834,1.026,11.32,3.309,15.953
		c0.652,1.12,1.22,2.258,1.889,3.316c0.751,1.012,1.411,2.053,2.179,2.997c0.77,0.865,1.521,1.711,2.255,2.535l0.733,0.659
		c0.116,0.102,0.254,0.234,0.353,0.31l0.241,0.162c0.157,0.109,0.31,0.222,0.459,0.341c0.17,0.117,0.399,0.232,0.593,0.351
		c3.229,1.93,7.168,1.953,10.188,1.069c1.534-0.429,2.881-1.086,3.997-1.84c0.592-0.338,1.057-0.783,1.556-1.146l0.045-0.035
		c0.019-0.016-0.02,0.022-0.056,0.057l0.086-0.082l0.198-0.19c0.053-0.053,0.159-0.149,0.166-0.165l0.043-0.059
		c0.054-0.038,0.179-0.225,0.279-0.354c0.376-0.582,0.543-1.188,0.554-1.694c0.021-0.508-0.082-0.914-0.206-1.205
		c-0.244-0.59-0.529-0.786-0.509-0.802l5.117-4.03c0,0,0.19,0.196,0.568,0.581c0.355,0.396,0.862,1.019,1.312,1.918
		c0.452,0.895,0.834,2.07,0.877,3.47c0.053,1.396-0.253,3.022-1.182,4.678c-0.258,0.412-0.478,0.796-0.89,1.285l-0.29,0.349
		c-0.104,0.121-0.135,0.146-0.206,0.224l-0.188,0.199l-0.095,0.1l-0.172,0.167l-0.063,0.055c-0.685,0.58-1.352,1.239-2.199,1.804
		c-1.616,1.197-3.626,2.311-6.028,3.113c-2.392,0.808-5.186,1.312-8.211,1.213c-3.018-0.079-6.263-0.837-9.219-2.375
		c-0.372-0.2-0.735-0.373-1.115-0.604c-0.383-0.254-0.768-0.51-1.155-0.768l-0.573-0.399c-0.163-0.121-0.264-0.211-0.399-0.319
		l-0.771-0.627l-0.097-0.079c0.114,0.105-0.266-0.23-0.261-0.233l-0.192-0.193l-0.386-0.388c-0.258-0.26-0.517-0.522-0.777-0.786
		c-0.52-0.529-1.046-1.065-1.578-1.607c-1.01-1.12-1.909-2.354-2.895-3.577c-0.899-1.266-1.689-2.626-2.558-3.989
		c-3.137-5.589-5.034-12.244-5.192-19.403c-0.223-7.162,1.562-14.823,5.484-22.179c0.434-0.944,1.05-1.815,1.609-2.721l0.862-1.354
		c0.287-0.453,0.566-0.907,0.943-1.362c0.715-0.907,1.435-1.82,2.158-2.738l0.551-0.687c0.181-0.213,0.349-0.375,0.524-0.566
		l1.047-1.107l1.052-1.114l0.264-0.28l0.133-0.14c0.132-0.13-0.108,0.094,0.329-0.327l0.602-0.552
		c0.804-0.736,1.613-1.477,2.425-2.222c1.593-1.521,3.378-2.911,5.112-4.377c7.05-5.768,15.225-11.078,24.391-15.612
		c9.138-4.582,19.377-8.196,30.337-10.692c5.505-1.158,11.171-2.098,16.99-2.618c5.817-0.477,11.76-0.67,17.771-0.397
		c6.005,0.303,12.064,0.984,18.106,2.09c6.022,1.173,12.009,2.763,17.877,4.781c5.868,2.024,11.544,4.578,17.029,7.479
		c1.353,0.75,2.726,1.483,4.066,2.26c1.312,0.813,2.628,1.627,3.944,2.442c1.332,0.802,2.55,1.729,3.833,2.594l1.902,1.323
		l1.899,1.466l1.898,1.48c0.627,0.493,1.301,1.008,1.785,1.444l3.176,2.731l0.397,0.342l0.587,0.55l0.78,0.747l1.561,1.496l3.13,3
		l3.137,3.011l1.571,1.51c0.513,0.512,0.992,1.048,1.489,1.572c1.975,2.108,3.953,4.222,5.936,6.339
		c15.762,17.036,28.954,36.29,39.463,56.578c2.772,5.027,4.978,10.25,7.362,15.415c1.244,2.57,2.167,5.229,3.229,7.85
		c1.02,2.632,2.092,5.252,3.062,7.895c3.633,10.627,6.955,21.329,9.193,32.131c0.569,2.698,1.224,5.383,1.713,8.082
		c0.446,2.705,0.891,5.405,1.334,8.097c0.221,1.348,0.44,2.694,0.66,4.038c0.206,1.346,0.318,2.697,0.481,4.043
		c0.299,2.695,0.6,5.383,0.897,8.063l0.222,2.01l0.127,2.011c0.08,1.34,0.16,2.678,0.24,4.014c0.155,2.674,0.311,5.339,0.466,7.995
		c0.022,2.658,0.046,5.307,0.068,7.946c0.01,1.321,0.02,2.639,0.029,3.954L296.305,237.764z M210.945,38.761
		c0.012-0.104,0.02-0.209,0.037-0.314c0.109-0.779,0.221-1.572,0.333-2.379c0.372-1.592,0.752-3.236,1.422-4.857
		c1.259-3.254,3.198-6.502,5.842-9.426c2.65-2.931,5.929-5.509,9.858-7.435c0.576-0.264,1.158-0.521,1.74-0.77l1.674-0.562
		c0.552-0.202,1.14-0.315,1.715-0.459c0.576-0.14,1.152-0.279,1.746-0.352c2.346-0.415,4.766-0.455,7.12-0.214
		c4.725,0.447,9.198,2.248,12.628,4.893c0.451,0.308,0.83,0.685,1.232,1.034c0.395,0.358,0.803,0.7,1.139,1.096l1.044,1.15
		l0.128,0.151l0.023,0.033l0.048,0.066l0.096,0.132l0.192,0.264l0.191,0.263c0.06,0.079,0.128,0.176,0.213,0.318
		c0.671,1.058,1.125,1.988,1.423,2.989c0.337,0.988,0.475,2.007,0.538,3.009c0.163,4.033-1.914,7.829-5.059,10.166l-0.604,0.417
		l-0.303,0.205l-0.15,0.102l-0.075,0.05l-0.139,0.085l-0.033,0.018l-0.531,0.29c-0.212,0.11-0.533,0.255-0.798,0.372
		c-1.057,0.437-2.07,0.679-3.136,0.799c-2.109,0.203-4.182-0.165-5.872-0.982c-0.853-0.394-1.611-0.898-2.25-1.468
		c-0.332-0.276-0.611-0.583-0.884-0.888l-0.102-0.114c0.017,0.023-0.244-0.309-0.142-0.179l-0.015-0.025l-0.032-0.048l-0.126-0.196
		l-0.25-0.386c-0.204-0.378-0.424-0.898-0.557-1.329c-0.064-0.408-0.149-0.811-0.151-1.207c0.01-0.797,0.182-1.561,0.509-2.246
		c0.328-0.688,0.808-1.282,1.348-1.783l0.438-0.34l0.218-0.164l0.109-0.081l0.055-0.04l0.027-0.02
		c0.078-0.047-0.137,0.077,0.181-0.11l0.353-0.171c0.065-0.031,0.099-0.052,0.189-0.09l0.355-0.129
		c0.234-0.078,0.489-0.158,0.709-0.2c0.205-0.029,0.409-0.053,0.61-0.073c0.401-0.043,0.802,0.004,1.181,0.039
		c0.75,0.135,1.448,0.373,1.988,0.752c0.289,0.171,0.521,0.378,0.73,0.594l0.157,0.159l0.076,0.079l0.109,0.138l0.01,0.014
		l0.019,0.028l0.144,0.222c0.44,0.78,0.42,1.322,0.34,1.885c-0.118,0.546-0.389,1.018-0.736,1.376
		c-0.355,0.352-0.706,0.612-1.231,0.789c-0.371,0.13-0.594,0.135-0.845,0.16c-0.243-0.003-0.474-0.005-0.677-0.053
		c-0.41-0.076-0.733-0.221-0.962-0.365c-0.466-0.289-0.602-0.526-0.614-0.515l2.408-1.581c0.004-0.004-0.016-0.033-0.082-0.089
		c-0.039-0.022-0.084-0.05-0.148-0.069c-0.034,0.001-0.068-0.023-0.108-0.012c-0.05-0.006-0.05-0.01-0.209,0.036
		c-0.08,0.049-0.028,0-0.021-0.023c0.01-0.021,0.008-0.047,0.008-0.071l-0.077-0.1l-0.026-0.016l-0.05-0.035
		c-0.061-0.053-0.122-0.106-0.207-0.134c-0.139-0.095-0.333-0.111-0.513-0.142c-0.095,0.018-0.192-0.006-0.283,0.025
		c-0.046,0.014-0.092,0.022-0.14,0.027c-0.026,0.011-0.011,0.024-0.022,0.019l-0.015-0.013c-0.027,0.01-0.103,0.058-0.151,0.084
		l-0.201,0.115c-0.007,0.004-0.009,0.006,0.007-0.003l-0.01,0.011l-0.02,0.021l-0.042,0.041l-0.083,0.081l-0.177,0.154
		c-0.198,0.234-0.373,0.488-0.479,0.781c-0.105,0.291-0.133,0.604-0.112,0.919c0.017,0.157,0.087,0.308,0.104,0.466
		c0.08,0.106,0.074,0.14,0.139,0.296l0.283,0.369l0.096,0.125l0.062,0.057c0.172,0.158,0.338,0.321,0.537,0.457
		c0.379,0.29,0.813,0.532,1.292,0.708c0.941,0.378,2.062,0.477,3.123,0.301c0.517-0.094,1.071-0.284,1.487-0.495l0.288-0.153
		l0.505-0.323l0.032-0.02c-0.037,0.023,0.127-0.08-0.075,0.046l0.046-0.037l0.091-0.075l0.182-0.148l0.369-0.292
		c1.881-1.64,2.91-4.098,2.595-6.511c-0.104-0.597-0.227-1.195-0.487-1.758c-0.21-0.575-0.595-1.135-0.859-1.517
		c-0.021-0.043-0.083-0.12-0.163-0.21l-0.213-0.25l-0.215-0.25l-0.106-0.125l-0.054-0.063l-0.026-0.031
		c0.185,0.222,0.035,0.048,0.07,0.091l-0.818-0.765c-0.255-0.27-0.573-0.484-0.871-0.717c-0.306-0.224-0.581-0.479-0.923-0.665
		c-2.549-1.672-5.705-2.687-8.885-2.763c-1.582-0.053-3.171,0.074-4.664,0.456c-0.382,0.065-0.744,0.188-1.106,0.305
		c-0.36,0.121-0.733,0.204-1.072,0.367l-1.034,0.426c-0.275,0.156-0.553,0.303-0.832,0.443c-2.738,1.564-5.09,3.716-6.806,5.972
		c-1.741,2.272-2.925,4.714-3.619,7.101c-0.389,1.188-0.532,2.383-0.712,3.521c-0.027,0.575-0.055,1.14-0.081,1.695
		c-0.06,0.551,0.051,1.096,0.06,1.625c-0.002,1.062,0.295,2.057,0.416,3.008c0.136,0.465,0.269,0.917,0.398,1.358
		c0.116,0.441,0.24,0.867,0.431,1.261c0.345,0.797,0.601,1.559,1.011,2.205c0.37,0.649,0.676,1.31,1.02,1.716
		c0.314,0.46,0.597,0.871,0.843,1.229c0.399,0.469,0.739,0.868,1.017,1.191c0.552,0.647,0.846,0.992,0.846,0.992l-1.346,0.796
		c-1.574-1.682-3.147-3.362-4.717-5.038c-0.497-0.523-0.977-1.06-1.489-1.572l-1.571-1.51l-3.137-3.011l-3.13-3L210.945,38.761z
		 M246.758,31.116c0-0.002,0.001-0.005,0.001-0.007C246.763,31.096,246.703,31.032,246.758,31.116z M246.605,30.923l-0.003-0.003
		c0.003,0.004,0.004,0.005,0.008,0.009L246.605,30.923z M330.735,198.724c-0.041,0.01-0.072,0.023-0.011,0.005
		c0.003,0,0.006-0.001,0.008-0.002l0.001-0.001L330.735,198.724z M346.522,194.143c-0.056,0.541-0.052,1.081-0.176,1.604
		c-0.38,2.103-1.29,4.046-2.601,5.646c-1.308,1.603-2.97,2.875-4.753,3.764c-0.438,0.235-0.893,0.429-1.355,0.599l-0.34,0.133
		l-0.17,0.066l-0.085,0.033L337,206.002c-0.377,0.127-0.127,0.041-0.221,0.072l-0.619,0.146l-0.611,0.145
		c-0.232,0.044-0.57,0.071-0.848,0.099c-0.585,0.053-1.174,0.102-1.658,0.022c-2.026-0.162-3.848-0.902-5.098-1.992
		c-0.338-0.245-0.575-0.571-0.851-0.848c-0.129-0.146-0.271-0.281-0.38-0.435l-0.288-0.473l-0.274-0.465l-0.133-0.229l-0.031-0.057
		c-0.104-0.23-0.034-0.079-0.06-0.136l-0.008-0.026l-0.031-0.102l-0.128-0.404c-0.042-0.145-0.073-0.404-0.096-0.599
		c-0.154-1.586,0.697-2.799,1.743-3.546c0.254-0.199,0.535-0.345,0.824-0.463l0.21-0.093l0.104-0.045l0.052-0.022
		c-0.08,0.026,0.14-0.048,0.124-0.042l0.021-0.005c0.114-0.027,0.229-0.054,0.339-0.08c0.88-0.158,1.454,0.001,2.013,0.24
		c0.533,0.245,0.93,0.617,1.153,1.005l0.086,0.144l0.04,0.07l0.041,0.088l0.004,0.013l0.009,0.025
		c0.021,0.076,0.041,0.098,0.074,0.291c0.058,0.338,0.001,0.518-0.077,0.745c-0.164,0.422-0.503,0.716-0.831,0.876l-0.125,0.057
		l-0.061,0.026l-0.015,0.006c0.133-0.037-0.197,0.058-0.166,0.048l-0.018,0.002c-0.049,0.007-0.095,0.014-0.139,0.02
		c-0.007,0.005-0.158,0.018-0.295,0.009c-0.132-0.007-0.259-0.029-0.366-0.058c-0.346-0.128-0.527-0.289-0.623-0.423
		c-0.1-0.128-0.137-0.197-0.137-0.197l1.392-0.548c0,0,0.013-0.067-0.132-0.126c-0.033-0.016-0.08-0.023-0.128-0.021
		c-0.068,0.019-0.133,0.038-0.057,0.015l0.001-0.001l0.004-0.005c0.014-0.003,0.028-0.007,0.041-0.01c-0.001,0-0.002,0-0.003,0
		c-0.014,0.001-0.022,0.005-0.035,0.008l0.009-0.009c0.027-0.025,0.045-0.06,0.044-0.099c-0.037-0.064-0.231-0.396-0.548-0.45
		c-0.089-0.039-0.197-0.042-0.297-0.05c-0.048,0.007-0.114-0.001-0.145,0.006c-0.021,0.014-0.034,0.013-0.064,0.007
		c-0.106,0.037-0.216,0.074-0.327,0.111l-0.021,0.007c-0.03,0.01,0.177-0.059,0.084-0.026l-0.026,0.017l-0.052,0.032l-0.105,0.064
		c-0.149,0.076-0.289,0.167-0.403,0.29c-0.268,0.204-0.437,0.506-0.573,0.811c-0.056,0.157-0.086,0.327-0.11,0.492
		c0.013,0.163-0.019,0.365,0.037,0.461c0.026,0.071-0.006,0.09,0.043,0.209l0.175,0.389l0.043,0.092
		c-0.008-0.017-0.011-0.025-0.024-0.055l0.028,0.035l0.113,0.142l0.224,0.287l0.219,0.293c0.082,0.092,0.193,0.166,0.288,0.251
		c0.207,0.155,0.364,0.359,0.605,0.488c0.867,0.617,2.066,0.933,3.253,0.909c0.322,0.032,0.547-0.05,0.784-0.08
		c0.131-0.025,0.217-0.008,0.389-0.054l0.589-0.201l0.598-0.203c-0.069,0.022,0.208-0.069-0.146,0.047l0.029-0.015l0.059-0.031
		l0.118-0.062l0.238-0.123c0.322-0.154,0.637-0.326,0.928-0.53c1.204-0.764,2.249-1.774,3.008-2.962
		c0.764-1.187,1.188-2.563,1.261-3.957c0.048-0.347-0.022-0.701-0.018-1.049c-0.058-0.348-0.092-0.698-0.181-1.042
		c-0.104-0.336-0.179-0.711-0.313-0.968l-0.172-0.436l-0.329-0.631l-0.165-0.317l-0.021-0.04c-0.059-0.123,0.059,0.122,0.038,0.085
		l-0.046-0.065l-0.09-0.132l-0.362-0.527c-0.251-0.347-0.453-0.718-0.738-1.047c-0.574-0.657-1.093-1.349-1.772-1.939
		c-1.249-1.251-2.768-2.312-4.405-3.199c-1.618-0.918-3.45-1.551-5.308-2.014c-1.859-0.484-3.817-0.64-5.732-0.617
		c-0.48,0.026-0.96,0.011-1.436,0.061l-1.421,0.169c-0.474,0.042-0.931,0.186-1.394,0.268l-0.692,0.14
		c-0.217,0.053-0.396,0.125-0.596,0.184c-0.405,0.133-0.741,0.208-1.203,0.364l-1.619,0.633l-0.403,0.158l-0.102,0.039
		c0.459-0.164,0.103-0.033,0.194-0.064l-0.043,0.022l-0.17,0.088l-0.68,0.349l-1.355,0.692c-0.449,0.231-0.905,0.45-1.346,0.688
		l-1.253,0.803l-1.248,0.792c-0.421,0.255-0.831,0.52-1.197,0.833c-0.757,0.591-1.512,1.179-2.262,1.765
		c-0.709,0.619-1.355,1.287-2.031,1.914c-0.702,0.606-1.262,1.315-1.843,1.993c-0.568,0.688-1.204,1.316-1.655,2.055
		c-0.493,0.707-0.981,1.408-1.466,2.103c-0.402,0.73-0.8,1.454-1.193,2.17c-0.267,0.429-0.473,0.878-0.664,1.329
		c-0.04-0.357-0.079-0.711-0.119-1.069c-0.163-1.346-0.275-2.697-0.481-4.043c-0.22-1.344-0.439-2.69-0.66-4.038
		c-0.393-2.387-0.787-4.781-1.183-7.178c0.246-0.202,0.48-0.414,0.744-0.603c0.976-0.737,1.926-1.505,2.939-2.211
		c1.055-0.659,2.115-1.322,3.18-1.988c0.52-0.345,1.082-0.637,1.655-0.916l1.704-0.855l1.708-0.848
		c0.59-0.25,1.195-0.476,1.791-0.713l1.798-0.699l0.897-0.346l0.224-0.087l0.35-0.128l0.105-0.029l0.422-0.12l1.688-0.478
		c0.659-0.165,1.477-0.327,2.207-0.477c0.372-0.071,0.758-0.157,1.118-0.21l1.058-0.118c0.705-0.063,1.4-0.18,2.108-0.188
		l2.113-0.043c0.702-0.001,1.402,0.07,2.099,0.108c2.777,0.23,5.507,0.745,8.022,1.658c2.516,0.89,4.893,2.019,6.94,3.464
		c2.065,1.412,3.896,3.032,5.343,4.833c0.779,0.865,1.366,1.828,1.985,2.75c0.308,0.462,0.524,0.963,0.785,1.438l0.37,0.718
		l0.092,0.179l0.046,0.089c-0.005-0.011,0.126,0.26,0.077,0.165l0.016,0.042l0.126,0.331l0.248,0.658l0.257,0.888
		c0.191,0.616,0.236,1.147,0.319,1.7C346.522,193.05,346.519,193.601,346.522,194.143z M328.508,201.101l0.004,0.009
		C328.497,201.077,328.538,201.17,328.508,201.101z M181.567,216.883c1.131,0.242,2.253,0.5,3.386,0.664
		c1.144,0.113,2.265,0.323,3.405,0.321c4.532,0.213,8.981-0.475,12.921-1.858l0.742-0.247c0.103-0.038-0.099,0.041,0.253-0.093
		l0.078-0.034l0.156-0.068l0.312-0.137l0.624-0.272l0.311-0.136l0.393-0.204c0.518-0.274,1.049-0.55,1.53-0.836l1.308-0.884
		c1.673-1.24,3.07-2.689,4.154-4.252c1.098-1.557,1.847-3.246,2.28-4.947c0.429-1.699,0.607-3.418,0.409-5.076
		c-0.189-1.65-0.576-3.256-1.287-4.705l-0.121-0.275l-0.061-0.137l-0.031-0.068l-0.083-0.166l-0.263-0.452
		c-0.134-0.258-0.433-0.689-0.713-1.072c-0.556-0.751-1.151-1.331-1.815-1.909c-2.696-2.232-6.276-3.19-9.483-2.983
		c-0.403,0.01-0.798,0.065-1.188,0.123c-0.393,0.044-0.771,0.126-1.146,0.217c-0.378,0.078-0.741,0.18-1.094,0.304l-0.527,0.174
		l-0.065,0.022c0.017-0.009-0.389,0.153-0.241,0.097l-0.102,0.05l-0.203,0.1c-0.273,0.136-0.543,0.271-0.812,0.405
		c-0.357,0.232-0.705,0.476-1.036,0.725c-0.362,0.245-0.57,0.511-0.813,0.77c-0.222,0.269-0.496,0.501-0.648,0.8
		c-0.168,0.287-0.334,0.571-0.5,0.852c-0.157,0.283-0.226,0.594-0.334,0.886c-0.241,0.581-0.237,1.193-0.302,1.771
		c0.025,0.579,0.079,1.156,0.228,1.688c0.097,0.263,0.19,0.522,0.284,0.779l0.072,0.189l0.037,0.094l0.019,0.047
		c-0.057-0.103,0.097,0.193,0.09,0.174l0.178,0.272c0.129,0.257,0.759,1,1.218,1.311c0.252,0.167,0.483,0.353,0.752,0.479
		c0.27,0.126,0.539,0.244,0.804,0.354c1.109,0.37,2.252,0.389,3.241,0.203c0.242-0.066,0.479-0.131,0.711-0.195l0.172-0.051
		c-0.013,0.007,0.269-0.105,0.163-0.064l0.028-0.014l0.058-0.028l0.226-0.111l0.119-0.06l0.19-0.121
		c0.127-0.082,0.247-0.168,0.363-0.255c0.236-0.177,0.347-0.341,0.51-0.513c0.564-0.702,0.733-1.5,0.657-2.175
		c-0.02-0.344-0.147-0.646-0.257-0.928l-0.011-0.026c0.046,0.083-0.073-0.143-0.064-0.125l-0.021-0.031l-0.044-0.062l-0.086-0.118
		c-0.116-0.14-0.281-0.314-0.436-0.435c-0.56-0.398-1.173-0.463-1.601-0.401c-0.885,0.146-1.036,0.595-1.047,0.558l0.257,0.552
		c0,0,0.351,0.154,0.528,0.407c0.087,0.132,0.133,0.261,0.126,0.351c-0.033,0.012-0.063-0.029-0.058-0.022l0.062,0.129l0.034,0.066
		l0.017,0.033c0.016,0.029-0.1-0.185-0.051-0.09l0.002,0.009c0.008,0.096,0.06,0.188,0.04,0.292c0,0.203-0.078,0.434-0.262,0.617
		c-0.049,0.027-0.105,0.111-0.132,0.108c-0.013,0.002-0.021,0.007-0.025,0.017l-0.006,0.018c-0.02,0.011-0.072,0.031-0.106,0.045
		l-0.233,0.097c0.006-0.002,0.017-0.007,0.012-0.005l-0.085,0.013c-0.114,0.019-0.227,0.042-0.34,0.068
		c-0.465,0.042-0.97,0.002-1.448-0.191c-0.107-0.066-0.218-0.128-0.334-0.185c-0.115-0.058-0.193-0.161-0.3-0.231
		c-0.132-0.079-0.121-0.148-0.194-0.203c-0.032-0.045-0.056-0.017-0.109-0.117l-0.153-0.279l-0.102-0.184
		c0.02,0.034,0.032,0.055,0.005,0.001l-0.007-0.029l-0.015-0.058l-0.027-0.116c-0.043-0.152-0.086-0.307-0.13-0.463
		c-0.058-0.314-0.046-0.645-0.045-0.973c0.093-0.324,0.078-0.669,0.268-0.982c0.081-0.157,0.113-0.332,0.223-0.479
		c0.11-0.147,0.218-0.296,0.32-0.449c0.079-0.166,0.27-0.266,0.395-0.406c0.139-0.127,0.273-0.291,0.412-0.341
		c0.134-0.078,0.255-0.166,0.373-0.267c0.271-0.113,0.546-0.228,0.822-0.344l0.197-0.082c-0.007,0.003-0.021,0.009-0.014,0.007
		l0.047-0.011l0.366-0.091c0.241-0.071,0.49-0.124,0.746-0.155c0.251-0.045,0.505-0.086,0.767-0.094
		c0.26-0.021,0.519-0.045,0.783-0.029c2.098,0,4.322,0.788,5.847,2.259c0.356,0.366,0.732,0.799,0.966,1.187
		c0.108,0.189,0.224,0.324,0.384,0.688l0.225,0.466c0.022,0.043-0.081-0.158-0.029-0.049l0.017,0.052l0.035,0.103l0.068,0.207
		c0.439,1.085,0.595,2.256,0.637,3.429c0.048,1.179-0.197,2.376-0.592,3.535c-0.4,1.16-1.014,2.288-1.855,3.292
		c-0.829,1.009-1.846,1.913-3.014,2.659l-0.907,0.524l-0.846,0.393l-0.206,0.102l-0.321,0.116l-0.646,0.233l-0.323,0.117
		l-0.161,0.059l-0.081,0.029c0.298-0.11,0.041-0.02,0.088-0.04l-0.588,0.148c-6.174,1.744-13.539,1.101-19.231-2.274
		c-0.352-0.211-0.719-0.402-1.062-0.624l-0.99-0.709c-0.694-0.437-1.24-1.025-1.868-1.528c-0.574-0.55-1.112-1.134-1.64-1.718
		l-0.713-0.931l-0.361-0.462l-0.264-0.444l-0.545-0.869c-0.09-0.115-0.195-0.347-0.296-0.559l-0.307-0.636l-0.307-0.637
		l-0.153-0.319l-0.077-0.16c0.188,0.377,0.038,0.062,0.073,0.127l-0.024-0.073l-0.398-1.174l-0.404-1.171
		c-0.139-0.39-0.284-0.777-0.351-1.184c-0.175-0.799-0.352-1.6-0.528-2.402c-0.503-3.235-0.493-6.521,0.046-9.75
		c0.631-3.22,1.82-6.341,3.471-9.243c1.61-2.926,3.9-5.522,6.438-7.804c1.231-1.184,2.701-2.138,4.08-3.153
		c1.513-0.855,3.025-1.829,4.427-2.388l1.051-0.506l0.264-0.129l0.371-0.135l0.741-0.27l1.481-0.539l0.738-0.269l0.369-0.134
		l0.185-0.067l0.092-0.034c0.106-0.04-0.585,0.223-0.253,0.1c0.906-0.258,1.811-0.515,2.711-0.772
		c0.908-0.235,1.823-0.435,2.728-0.656c3.642-0.8,7.305-1.295,10.914-1.503c7.226-0.428,14.225,0.323,20.521,1.899
		c3.15,0.785,6.141,1.75,8.921,2.876c2.775,1.14,5.347,2.413,7.717,3.752c2.347,1.373,4.486,2.811,6.416,4.274
		c1.898,1.493,3.639,2.961,5.118,4.459c0.672,0.661,1.298,1.315,1.891,1.963c-1.491-8.163-3.573-16.288-5.844-24.404
		c-0.15-0.49-0.315-0.977-0.472-1.466c-2.452-1.107-5.027-2.143-7.729-3.072c-3.727-1.265-7.69-2.304-11.827-3.09
		c-8.267-1.597-17.3-1.978-26.377-0.903c-4.537,0.535-9.08,1.434-13.528,2.7c-1.104,0.337-2.217,0.657-3.315,1.016
		c-1.088,0.383-2.177,0.767-3.27,1.152l-0.438,0.164l-0.089,0.039l-0.179,0.078l-0.358,0.155l-0.717,0.312l-1.435,0.624
		l-0.718,0.313l-0.36,0.157l-0.431,0.223l-1.727,0.912c-2.407,1.198-4.274,2.574-6.269,3.919c-1.834,1.501-3.709,2.966-5.289,4.676
		c-3.235,3.335-6,7.046-7.865,11.081c-1.905,4.011-3.134,8.238-3.611,12.508c-0.395,4.28-0.033,8.559,0.979,12.663
		c0.312,1.013,0.624,2.023,0.936,3.031c0.137,0.507,0.355,0.992,0.569,1.477l0.635,1.453l0.638,1.443l0.04,0.09
		c0.058,0.119-0.074-0.139,0.141,0.29l0.09,0.154l0.18,0.308l0.359,0.616l0.358,0.615c0.119,0.205,0.222,0.396,0.42,0.667
		l1.062,1.495c2.789,3.747,6.503,6.583,10.678,8.63C177.126,215.546,179.351,216.274,181.567,216.883z"/>
	<path fill="#0F4357" d="M27.86,346.493c0.004-0.561,0.009-1.122,0.014-1.684c0.009-1.125,0.018-2.253,0.027-3.386
		c0.066-1.131,0.134-2.267,0.199-3.406c0.034-0.569,0.068-1.139,0.103-1.71l0.055-0.856l0.096-0.856
		c0.126-1.142,0.253-2.287,0.382-3.435c0.069-0.574,0.117-1.149,0.205-1.722c0.094-0.573,0.188-1.146,0.282-1.721
		c0.188-1.147,0.379-2.297,0.567-3.45c0.211-1.149,0.489-2.293,0.732-3.443c0.954-4.602,2.372-9.161,3.923-13.689
		c0.414-1.126,0.871-2.242,1.307-3.364c0.453-1.116,0.848-2.25,1.377-3.344c1.019-2.201,1.959-4.425,3.142-6.567
		c4.484-8.644,10.114-16.846,16.839-24.104c0.845-0.902,1.689-1.802,2.533-2.701c0.212-0.223,0.416-0.452,0.636-0.669l0.67-0.644
		l1.338-1.282l1.335-1.279l0.666-0.637l0.334-0.318l0.25-0.234l0.17-0.146l1.354-1.163c0.208-0.186,0.495-0.405,0.763-0.616
		l0.811-0.631l0.81-0.625l0.812-0.564c0.548-0.368,1.067-0.764,1.636-1.104c0.562-0.347,1.122-0.695,1.683-1.041
		c0.572-0.331,1.158-0.644,1.735-0.963c2.341-1.235,4.763-2.323,7.267-3.186c2.503-0.86,5.059-1.537,7.627-2.037
		c2.579-0.471,5.164-0.761,7.727-0.891c2.564-0.116,5.1-0.034,7.582,0.169c2.483,0.222,4.9,0.622,7.25,1.116
		c4.676,1.064,9.045,2.604,12.944,4.556c3.911,1.931,7.399,4.194,10.407,6.651c0.74,0.625,1.501,1.217,2.181,1.865
		c0.347,0.317,0.691,0.633,1.034,0.947l0.257,0.235c0.188,0.179,0.085,0.083,0.141,0.139l0.057,0.06l0.112,0.119l0.45,0.475
		l0.446,0.472c0.074,0.081,0.146,0.15,0.224,0.241l0.234,0.292c0.309,0.392,0.616,0.781,0.921,1.167
		c0.16,0.194,0.28,0.388,0.402,0.581l0.368,0.577c0.239,0.386,0.502,0.757,0.687,1.16c1.674,3.134,2.435,6.397,2.341,9.449
		c-0.068,3.05-0.878,5.885-2.216,8.266c-0.371,0.581-0.708,1.161-1.092,1.7c-0.42,0.522-0.804,1.047-1.234,1.524
		c-0.227,0.231-0.451,0.458-0.674,0.685c-0.11,0.112-0.222,0.223-0.331,0.334l-0.165,0.165l-0.081,0.083
		c0.001,0.001-0.16,0.145-0.112,0.099l-0.041,0.034l-0.328,0.267c-0.059,0.046-0.102,0.084-0.171,0.136l-0.245,0.17
		c-0.165,0.11-0.329,0.219-0.493,0.328c-0.162,0.098-0.317,0.172-0.476,0.257c-1.262,0.655-2.646,0.979-3.934,1.012
		c-1.291,0.042-2.483-0.173-3.504-0.517c-1.023-0.342-1.882-0.816-2.571-1.326c-0.362-0.241-0.646-0.521-0.938-0.769l-0.027-0.023
		l-0.073-0.07l-0.041-0.043l-0.079-0.084c-0.03-0.034-0.043-0.044-0.088-0.096l-0.124-0.148c-0.176-0.208-0.27-0.373-0.38-0.548
		c-0.396-0.705-0.527-1.398-0.504-1.992c0.019-0.597,0.181-1.098,0.374-1.479c0.192-0.383,0.408-0.648,0.56-0.817
		c0.162-0.165,0.243-0.248,0.243-0.248l2.184,1.717c0.008,0.006-0.113,0.09-0.217,0.341c-0.054,0.124-0.098,0.297-0.089,0.513
		c0.004,0.216,0.076,0.474,0.237,0.722c0.043,0.055,0.096,0.135,0.118,0.15l0.019,0.025c0.003,0.007,0.048,0.048,0.07,0.07
		l0.085,0.081l0.037,0.035c-0.016-0.015-0.031-0.031-0.023-0.024l0.019,0.015c0.213,0.155,0.411,0.344,0.664,0.488
		c0.477,0.321,1.051,0.601,1.705,0.784c1.288,0.376,2.97,0.367,4.348-0.455c0.082-0.051,0.18-0.1,0.252-0.15
		c0.064-0.05,0.13-0.099,0.196-0.146l0.104-0.068c0.041-0.032,0.1-0.088,0.15-0.132l0.312-0.281c0.312-0.351,0.634-0.711,0.963-1.08
		c0.326-0.402,0.608-0.845,0.929-1.276c0.285-0.451,0.527-0.936,0.807-1.413c0.973-1.974,1.496-4.311,1.411-6.796
		c0.019-0.622-0.116-1.25-0.181-1.886c-0.031-0.319-0.138-0.633-0.201-0.952l-0.11-0.479c-0.032-0.162-0.073-0.321-0.135-0.478
		c-0.222-0.631-0.402-1.281-0.719-1.901c-0.15-0.312-0.265-0.637-0.445-0.942c-0.175-0.305-0.353-0.613-0.531-0.922
		c-0.161-0.317-0.396-0.601-0.602-0.9l-0.317-0.447c-0.105-0.15-0.21-0.305-0.329-0.427c-0.227-0.263-0.456-0.527-0.686-0.793
		l-0.169-0.201c-0.063-0.07-0.153-0.149-0.229-0.223l-0.472-0.453l-0.477-0.455l-0.119-0.114l-0.06-0.057
		c0.018,0.016-0.123-0.12,0.023,0.022l-0.245-0.203c-0.329-0.272-0.659-0.545-0.99-0.82c-0.648-0.563-1.371-1.068-2.07-1.605
		c-2.841-2.106-6.081-3.993-9.641-5.555c-3.547-1.584-7.458-2.761-11.559-3.514c-2.06-0.337-4.16-0.596-6.297-0.695
		c-2.135-0.081-4.296-0.061-6.459,0.13c-2.161,0.203-4.32,0.54-6.453,1.023c-2.123,0.512-4.214,1.167-6.245,1.964
		c-2.03,0.8-3.976,1.787-5.842,2.883c-0.459,0.285-0.927,0.56-1.382,0.852c-0.444,0.305-0.89,0.609-1.334,0.915
		c-0.452,0.297-0.858,0.647-1.292,0.967l-0.641,0.489l-0.578,0.495l-0.58,0.493c-0.193,0.166-0.38,0.313-0.603,0.532l-1.288,1.22
		c-0.754,0.795-1.511,1.593-2.27,2.393l-1.173,1.238l-0.588,0.621c-0.19,0.21-0.368,0.43-0.552,0.645
		c-0.732,0.864-1.465,1.729-2.198,2.596c-5.834,6.962-10.574,14.73-14.237,22.826c-0.977,2.004-1.718,4.088-2.538,6.138
		c-0.431,1.019-0.729,2.077-1.087,3.115c-0.339,1.043-0.701,2.08-1.022,3.125c-1.179,4.206-2.244,8.417-2.874,12.657
		c-0.161,1.059-0.358,2.11-0.49,3.167c-0.113,1.058-0.227,2.115-0.338,3.168c-0.058,0.526-0.114,1.052-0.171,1.577
		c-0.052,0.524-0.062,1.053-0.097,1.578c-0.057,1.05-0.115,2.098-0.172,3.142l-0.043,0.782l-0.004,0.782
		c-0.001,0.521-0.003,1.042-0.004,1.561c-0.003,1.038-0.006,2.072-0.008,3.103c0.05,1.03,0.101,2.056,0.15,3.078
		c0.024,0.511,0.05,1.021,0.073,1.529l0.039,0.762l0.076,0.759c0.679,8.093,2.259,15.835,4.466,22.991
		c2.203,7.16,5.033,13.729,8.123,19.581c0.395,0.728,0.785,1.449,1.17,2.162c0.384,0.713,0.756,1.42,1.186,2.095
		c0.826,1.362,1.631,2.691,2.417,3.988c1.712,2.524,3.266,4.949,4.955,7.107c0.408,0.547,0.81,1.084,1.204,1.613
		c0.197,0.264,0.395,0.525,0.587,0.785c0.21,0.252,0.416,0.501,0.62,0.748c0.814,0.988,1.6,1.941,2.354,2.856
		c0.731,0.931,1.535,1.757,2.264,2.571c0.734,0.81,1.435,1.581,2.1,2.313c0.328,0.379,0.665,0.693,0.986,1.018
		c0.321,0.321,0.635,0.634,0.937,0.937c0.605,0.605,1.171,1.173,1.696,1.701c0.264,0.264,0.516,0.518,0.758,0.763
		c0.281,0.259,0.553,0.506,0.81,0.743c0.521,0.476,0.994,0.908,1.417,1.294c1.692,1.548,2.596,2.372,2.596,2.372l-0.161,0.127
		H57.975c-0.475-0.578-0.958-1.167-1.463-1.782c-0.771-0.957-1.62-1.934-2.394-3.018c-0.794-1.07-1.62-2.185-2.478-3.34
		c-0.214-0.289-0.43-0.58-0.646-0.874c-0.204-0.302-0.409-0.606-0.615-0.914c-0.412-0.614-0.831-1.239-1.258-1.874
		c-1.755-2.513-3.362-5.312-5.112-8.228c-0.799-1.491-1.618-3.019-2.457-4.584c-0.434-0.775-0.81-1.584-1.194-2.401
		c-0.387-0.815-0.777-1.639-1.172-2.472c-3.081-6.684-5.812-14.126-7.803-22.158c-1.994-8.028-3.251-16.643-3.491-25.57
		l-0.034-0.837L27.86,346.493z M13.168,330.702c0.001,0,0.002,0,0.003,0.001c0.025,0.007,0.013,0.002-0.005-0.002L13.168,330.702
		L13.168,330.702z M28.4,331.047c0.115,0.183,0.202,0.375,0.284,0.568c0.017-0.152,0.033-0.304,0.051-0.457
		c0.069-0.574,0.117-1.149,0.205-1.722c0.094-0.573,0.188-1.146,0.282-1.721c0.167-1.018,0.336-2.038,0.503-3.06
		c-0.104-0.086-0.204-0.176-0.316-0.256c-0.416-0.313-0.821-0.641-1.255-0.942c-0.449-0.281-0.901-0.563-1.356-0.847
		c-0.222-0.147-0.461-0.272-0.705-0.39l-0.729-0.364l-0.728-0.361c-0.252-0.106-0.511-0.203-0.766-0.304l-0.766-0.298l-0.383-0.148
		l-0.096-0.037l-0.149-0.054l-0.046-0.013l-0.18-0.052l-0.72-0.204c-0.281-0.07-0.63-0.139-0.941-0.203
		c-0.159-0.03-0.323-0.067-0.477-0.088l-0.452-0.051c-0.301-0.027-0.598-0.077-0.898-0.08l-0.902-0.019
		c-0.3,0-0.598,0.03-0.896,0.046c-1.185,0.098-2.35,0.318-3.422,0.707c-1.074,0.379-2.089,0.86-2.962,1.476
		c-0.881,0.602-1.662,1.292-2.28,2.06c-0.332,0.369-0.583,0.778-0.846,1.171c-0.132,0.197-0.225,0.41-0.335,0.613l-0.158,0.306
		l-0.04,0.076l-0.02,0.038c0.002-0.005-0.054,0.111-0.032,0.07l-0.007,0.017l-0.054,0.141l-0.106,0.28l-0.109,0.378
		c-0.082,0.263-0.102,0.489-0.136,0.724c-0.028,0.234-0.027,0.469-0.028,0.7c0.024,0.23,0.022,0.46,0.075,0.684
		c0.162,0.896,0.551,1.724,1.108,2.405c0.56,0.683,1.268,1.225,2.029,1.604c0.187,0.1,0.381,0.182,0.577,0.255l0.146,0.056
		l0.073,0.028l0.034,0.015l0.019,0.007c0.162,0.055,0.054,0.017,0.096,0.031l0.264,0.062l0.261,0.062
		c0.1,0.019,0.243,0.03,0.362,0.042c0.248,0.022,0.5,0.043,0.707,0.009c0.864-0.068,1.641-0.384,2.174-0.848
		c0.145-0.104,0.246-0.244,0.364-0.361c0.055-0.062,0.115-0.12,0.162-0.185l0.123-0.201l0.116-0.199l0.058-0.097l0.014-0.024
		c0.044-0.098,0.014-0.034,0.023-0.059l0.004-0.011l0.014-0.043l0.056-0.172c0.018-0.062,0.03-0.171,0.04-0.255
		c0.065-0.675-0.297-1.192-0.744-1.51c-0.108-0.084-0.229-0.147-0.352-0.197l-0.09-0.04l-0.044-0.019l-0.021-0.01
		c0.033,0.011-0.061-0.021-0.054-0.018l-0.009-0.002c-0.05-0.011-0.098-0.023-0.146-0.034c-0.375-0.068-0.62,0-0.859,0.102
		c-0.227,0.104-0.396,0.263-0.492,0.429l-0.035,0.061l-0.018,0.03l-0.018,0.038l-0.002,0.006l-0.004,0.011
		c-0.008,0.032-0.017,0.042-0.031,0.124c-0.024,0.144,0,0.221,0.033,0.318c0.069,0.18,0.215,0.305,0.354,0.373l0.054,0.025
		l0.025,0.011l0.007,0.002c-0.057-0.016,0.084,0.025,0.071,0.021l0.007,0.001c0.021,0.003,0.04,0.006,0.059,0.008
		c0.003,0.002,0.067,0.008,0.127,0.004c0.056-0.003,0.109-0.013,0.156-0.025c0.147-0.055,0.225-0.124,0.265-0.18
		c0.043-0.055,0.058-0.083,0.058-0.083l-0.592-0.234c0,0-0.006-0.029,0.055-0.054c0.016-0.007,0.035-0.01,0.056-0.009
		c0.028,0.008,0.055,0.016,0.023,0.006v0l-0.001-0.002c-0.006-0.001-0.012-0.003-0.018-0.004l0,0c0.006,0,0.01,0.002,0.016,0.003
		l-0.004-0.004c-0.012-0.012-0.02-0.026-0.02-0.044c-0.021,0.053,0.067-0.162,0.235-0.19c0.037-0.017,0.084-0.019,0.126-0.021
		c0.021,0.002,0.049-0.001,0.062,0.002c0.009,0.006,0.015,0.006,0.027,0.003c0.042,0.015,0.087,0.029,0.131,0.044
		c-0.02-0.007-0.045-0.015-0.019-0.005l0.012,0.007l0.022,0.014l0.044,0.028c0.065,0.032,0.124,0.07,0.173,0.123
		c0.114,0.087,0.187,0.216,0.245,0.346c0.023,0.067,0.036,0.139,0.047,0.209c-0.006,0.07,0.009,0.155-0.016,0.196
		c-0.012,0.03,0.002,0.039-0.019,0.089l-0.075,0.166l-0.02,0.042v0c0.003-0.007,0.005-0.013,0.012-0.027l-0.012,0.016l-0.049,0.06
		l-0.095,0.123l-0.095,0.125c-0.033,0.04-0.082,0.071-0.122,0.107c-0.088,0.066-0.155,0.152-0.258,0.208
		c-0.37,0.263-0.882,0.397-1.388,0.387c-0.139,0.014-0.233-0.021-0.336-0.034c-0.055-0.011-0.092-0.003-0.165-0.023l-0.252-0.085
		l-0.255-0.087c0.001,0,0,0,0,0c0.012,0.004,0.028,0.01,0.062,0.021l-0.013-0.007l-0.025-0.014l-0.049-0.026l-0.103-0.053
		c-0.137-0.066-0.271-0.138-0.396-0.225c-0.514-0.326-0.959-0.756-1.282-1.262c-0.326-0.505-0.509-1.091-0.538-1.686
		c-0.021-0.148,0.009-0.298,0.008-0.447c0.024-0.148,0.038-0.297,0.077-0.444c0.043-0.144,0.075-0.303,0.133-0.413l0.073-0.186
		l0.141-0.269l0.07-0.135l0.009-0.017c0.025-0.052-0.024,0.052-0.016,0.036l0.02-0.028l0.038-0.056l0.154-0.225
		c0.108-0.147,0.193-0.306,0.315-0.447c0.245-0.279,0.466-0.574,0.756-0.825c0.534-0.534,1.183-0.985,1.881-1.363
		c0.689-0.391,1.471-0.661,2.264-0.858c0.794-0.207,1.629-0.272,2.445-0.263c0.206,0.011,0.41,0.005,0.614,0.026l0.605,0.072
		c0.202,0.018,0.397,0.079,0.594,0.114l0.296,0.059c0.093,0.022,0.169,0.053,0.255,0.079c0.173,0.057,0.315,0.088,0.514,0.155
		l0.69,0.269l0.172,0.067l0.044,0.018c-0.196-0.07-0.045-0.015-0.083-0.028l0.018,0.009l0.072,0.038l0.29,0.149l0.579,0.294
		c0.19,0.099,0.386,0.192,0.574,0.293l0.534,0.342l0.533,0.337c0.178,0.108,0.354,0.222,0.51,0.354
		c0.323,0.252,0.646,0.502,0.966,0.752c0.302,0.264,0.578,0.548,0.866,0.815c0.299,0.258,0.538,0.56,0.786,0.849
		c0.242,0.292,0.514,0.561,0.706,0.875c0.212,0.301,0.419,0.599,0.626,0.896C28.063,330.434,28.233,330.742,28.4,331.047z"/>
	<path fill="#0D3B4C" d="M85.337,318.062c-0.796-1.719-1.975-3.3-3.355-4.721c-0.674-0.729-1.474-1.353-2.257-1.992
		c-0.851-0.574-1.646-1.16-2.675-1.67l-0.736-0.388l-0.183-0.095l-0.154-0.067l-0.308-0.133l-0.611-0.266l-0.306-0.133l-0.153-0.066
		l-0.075-0.034l-0.039-0.017l-0.186-0.069c-0.467-0.164-0.932-0.327-1.396-0.491c-0.47-0.153-0.944-0.29-1.415-0.433
		c-1.897-0.539-3.836-0.922-5.773-1.149c-3.872-0.458-7.727-0.296-11.254,0.384c-1.765,0.335-3.456,0.778-5.046,1.316
		c-1.162,0.399-2.251,0.854-3.305,1.33c-0.065,0.201-0.133,0.402-0.195,0.604c-0.968,3.454-1.845,6.913-2.481,10.387
		c0.251-0.273,0.511-0.548,0.794-0.826c0.632-0.638,1.374-1.263,2.186-1.899c0.822-0.624,1.736-1.236,2.737-1.821
		c1.011-0.57,2.107-1.113,3.293-1.599c1.186-0.479,2.461-0.891,3.807-1.225c2.687-0.671,5.673-0.991,8.756-0.809
		c1.54,0.089,3.104,0.3,4.656,0.641c0.386,0.094,0.776,0.179,1.164,0.279c0.384,0.109,0.77,0.218,1.156,0.329
		c0.142,0.052-0.153-0.06-0.108-0.042l0.039,0.014l0.08,0.028l0.156,0.058l0.315,0.114l0.633,0.229l0.316,0.116l0.158,0.057
		l0.112,0.056l0.448,0.215c0.598,0.238,1.244,0.653,1.889,1.018c0.588,0.433,1.216,0.838,1.741,1.343
		c1.082,0.972,2.06,2.078,2.747,3.325c0.703,1.237,1.212,2.566,1.48,3.938c0.229,1.375,0.233,2.775,0.02,4.153
		c-0.076,0.342-0.15,0.684-0.226,1.024c-0.027,0.173-0.091,0.338-0.149,0.505l-0.173,0.499l-0.17,0.5l-0.01,0.031
		c0.015-0.028-0.049,0.105,0.03-0.055l-0.031,0.068l-0.066,0.136l-0.131,0.271l-0.13,0.271c-0.044,0.09-0.089,0.189-0.128,0.237
		l-0.232,0.371l-0.112,0.189l-0.153,0.197l-0.306,0.396c-0.224,0.249-0.454,0.498-0.698,0.732c-0.269,0.214-0.501,0.465-0.797,0.651
		l-0.423,0.302c-0.146,0.094-0.304,0.176-0.453,0.266c-2.429,1.438-5.571,1.711-8.206,0.969l-0.251-0.063
		c0.021,0.008-0.09-0.03,0.038,0.017l-0.035-0.012l-0.068-0.025l-0.138-0.05l-0.275-0.099l-0.137-0.05l-0.088-0.044l-0.361-0.167
		l-0.388-0.223c-0.498-0.318-0.932-0.703-1.286-1.133c-0.359-0.428-0.62-0.909-0.791-1.402c-0.168-0.494-0.273-1.004-0.253-1.507
		c0.019-0.5,0.085-0.999,0.271-1.46l0.029-0.088l0.016-0.044l0.007-0.022c0.022-0.046-0.022,0.04-0.013,0.021l0.097-0.199
		c0.067-0.155,0.117-0.213,0.164-0.293c0.099-0.165,0.259-0.35,0.41-0.506c0.651-0.627,1.601-0.962,2.495-0.962
		c0.113-0.007,0.224,0.003,0.335,0.012c0.11,0.003,0.219,0.021,0.327,0.04c0.109,0.014,0.215,0.036,0.318,0.067l0.156,0.038
		l0.02,0.005c0.004,0.001-0.002-0.001-0.007-0.003l0.085,0.036c0.118,0.049,0.235,0.098,0.352,0.146
		c0.05,0.043,0.103,0.08,0.159,0.113c0.059,0.021,0.116,0.091,0.176,0.146c0.053,0.06,0.135,0.103,0.169,0.172
		c0.043,0.066,0.088,0.129,0.136,0.191c0.047,0.063,0.061,0.138,0.096,0.205c0.08,0.133,0.074,0.281,0.113,0.419
		c0,0.139,0.006,0.281-0.02,0.414c-0.018,0.067-0.036,0.132-0.055,0.197l-0.013,0.05l-0.006,0.024l-0.003,0.012
		c-0.007,0.013-0.007,0.016-0.005,0.013l-0.036,0.065l-0.064,0.119c-0.023,0.043-0.034,0.031-0.048,0.049
		c-0.03,0.024-0.025,0.054-0.083,0.087c-0.045,0.03-0.079,0.074-0.128,0.098c-0.049,0.024-0.097,0.05-0.142,0.079
		c-0.205,0.083-0.42,0.1-0.617,0.082c-0.05-0.011-0.098-0.021-0.146-0.029l-0.035-0.006c-0.004-0.001,0.003,0.002,0.014,0.006
		l-0.009-0.003l-0.101-0.041c-0.015-0.006-0.035-0.015-0.045-0.02l-0.003-0.008c-0.002-0.004-0.004-0.006-0.011-0.007
		c-0.011,0.001-0.035-0.034-0.056-0.046c-0.078-0.078-0.111-0.177-0.111-0.263c-0.009-0.044,0.013-0.084,0.017-0.125l0.001-0.004
		c0.021-0.04-0.028,0.051-0.022,0.039l0.008-0.014l0.015-0.028l0.025-0.055c0.003-0.003-0.01,0.014-0.023,0.009
		c-0.003-0.038,0.017-0.093,0.054-0.149c0.075-0.108,0.226-0.174,0.226-0.174l0.109-0.235c-0.005,0.016-0.069-0.175-0.447-0.237
		c-0.182-0.027-0.443,0.001-0.683,0.171c-0.065,0.051-0.135,0.125-0.186,0.185l-0.036,0.051l-0.02,0.025l-0.01,0.013
		c0.004-0.008-0.046,0.088-0.026,0.054l-0.005,0.011c-0.047,0.12-0.102,0.249-0.109,0.395c-0.033,0.288,0.039,0.627,0.279,0.927
		c0.07,0.073,0.117,0.144,0.219,0.219c0.049,0.037,0.1,0.074,0.154,0.109l0.081,0.051l0.051,0.025l0.097,0.048l0.024,0.012
		l0.012,0.006c-0.045-0.018,0.075,0.03,0.07,0.027l0.073,0.021c0.099,0.027,0.199,0.056,0.304,0.083
		c0.421,0.079,0.908,0.071,1.383-0.087c0.113-0.046,0.228-0.097,0.343-0.15s0.213-0.133,0.32-0.204
		c0.197-0.133,0.466-0.449,0.52-0.559l0.076-0.116c-0.002,0.008,0.063-0.118,0.039-0.074l0.008-0.02l0.017-0.041l0.029-0.08
		c0.04-0.109,0.08-0.22,0.122-0.332c0.063-0.227,0.086-0.473,0.098-0.72c-0.028-0.247-0.026-0.506-0.13-0.754
		c-0.046-0.124-0.075-0.256-0.143-0.377c-0.07-0.12-0.141-0.241-0.213-0.364c-0.065-0.127-0.183-0.226-0.277-0.341
		c-0.104-0.11-0.192-0.224-0.347-0.328c-0.141-0.106-0.289-0.21-0.442-0.31c-0.113-0.056-0.229-0.114-0.346-0.172l-0.087-0.042
		l-0.043-0.021c0.062,0.024-0.109-0.045-0.104-0.041l-0.027-0.01l-0.226-0.074c-0.149-0.053-0.306-0.097-0.466-0.13
		c-0.16-0.039-0.322-0.073-0.489-0.092c-0.166-0.024-0.335-0.048-0.507-0.052c-1.369-0.088-2.896,0.32-4.047,1.271
		c-0.283,0.247-0.538,0.494-0.774,0.814c-0.12,0.163-0.247,0.346-0.304,0.457l-0.113,0.192l-0.034,0.071l-0.014,0.029l-0.026,0.058
		l-0.051,0.117c-0.304,0.617-0.469,1.302-0.55,2.004c-0.084,0.706-0.008,1.439,0.175,2.163c0.185,0.724,0.504,1.444,0.973,2.107
		c0.462,0.666,1.059,1.283,1.773,1.812l0.557,0.376c0.205,0.123,0.432,0.24,0.654,0.357l0.166,0.087l0.134,0.058l0.265,0.116
		l0.134,0.059l0.067,0.029l0.032,0.015c0.151,0.056,0.065,0.023,0.108,0.039l0.317,0.105c1.681,0.589,3.579,0.883,5.513,0.792
		c0.487,0.001,0.965-0.088,1.452-0.137c0.484-0.07,0.963-0.18,1.445-0.283c0.946-0.259,1.895-0.569,2.775-1.016
		c1.78-0.872,3.365-2.08,4.556-3.676l0.454-0.637c0.084-0.116,0.128-0.197,0.179-0.284l0.152-0.263l0.155-0.263l0.075-0.13
		l0.038-0.066c0.093-0.183,0.036-0.073,0.061-0.123l0.018-0.038l0.271-0.615l0.271-0.619c0.091-0.207,0.185-0.413,0.243-0.63
		c0.134-0.429,0.267-0.859,0.398-1.291c0.433-1.748,0.587-3.571,0.419-5.394C86.675,321.571,86.151,319.771,85.337,318.062z
		 M69.966,330.159l-0.006-0.003C69.979,330.164,69.992,330.169,69.966,330.159z"/>
	<path fill="#0D3B4C" d="M131.502,42.833c-21.171,0-38.334,17.163-38.334,38.333c0,21.171,17.163,38.333,38.334,38.333
		c21.17,0,38.333-17.163,38.333-38.333C169.835,59.996,152.672,42.833,131.502,42.833z M131.502,106.722
		c-14.114,0-25.556-11.442-25.556-25.556c0-14.113,11.441-25.555,25.556-25.555s25.556,11.442,25.556,25.555
		C157.058,95.28,145.616,106.722,131.502,106.722z"/>
	<path fill="#0F4357" d="M37.502,217.5c-11.229,0-20.334,9.104-20.334,20.333c0,11.23,9.104,20.333,20.334,20.333
		s20.333-9.104,20.333-20.333C57.835,226.603,48.731,217.5,37.502,217.5z M37.502,251.388c-7.487,0-13.556-6.069-13.556-13.556
		c0-7.486,6.068-13.555,13.556-13.555c7.486,0,13.556,6.069,13.556,13.555C51.058,245.319,44.988,251.388,37.502,251.388z"/>
	<path fill="#0D3B4C" d="M409.502,39.5c-11.229,0-20.334,9.104-20.334,20.333c0,11.23,9.105,20.333,20.334,20.333
		c11.23,0,20.334-9.104,20.334-20.333C429.836,48.603,420.732,39.5,409.502,39.5z M409.502,73.388
		c-7.486,0-13.555-6.069-13.555-13.556c0-7.486,6.068-13.555,13.555-13.555s13.557,6.069,13.557,13.555
		C423.059,67.319,416.988,73.388,409.502,73.388z"/>
	<path fill="#0D3B4C" d="M396.962,117.855l-0.003-0.127l-0.027-2.042l-0.036-2.052c-0.01-0.686-0.015-1.374-0.116-2.056
		c-0.16-1.372-0.321-2.746-0.483-4.124c-0.92-5.478-2.608-10.905-5.091-16.022c-2.563-5.071-5.895-9.78-9.832-13.945
		c-3.906-4.211-8.6-7.652-13.605-10.436c-2.484-1.461-5.159-2.497-7.809-3.595c-2.742-0.84-5.366-1.77-8.47-2.258l-2.252-0.416
		l-0.561-0.098l-0.453-0.046l-0.904-0.091l-1.806-0.18l-0.904-0.09l-0.45-0.044l-0.226-0.023l-0.112-0.011l-0.539-0.021
		c-1.332-0.026-2.659-0.052-3.986-0.078c-1.326,0.008-2.649,0.071-3.97,0.109c-5.278,0.267-10.479,1.025-15.498,2.229
		c-10.042,2.406-19.335,6.587-27.236,11.954c-3.96,2.67-7.616,5.581-10.914,8.672c-3.286,3.107-6.231,6.362-8.864,9.663
		c-2.592,3.331-4.864,6.703-6.831,10.041c-0.881,1.543-1.705,3.069-2.477,4.581c1.268,2.286,2.506,4.584,3.705,6.899
		c2.772,5.027,4.978,10.25,7.362,15.415c1.244,2.57,2.167,5.229,3.229,7.85c0.173,0.445,0.35,0.89,0.524,1.334
		c0.126-1.33,0.204-2.861,0.479-4.526c0.502-3.668,1.428-8.097,3.153-12.982c0.829-2.456,1.945-4.982,3.216-7.604
		c1.317-2.599,2.868-5.251,4.666-7.909c1.84-2.626,3.923-5.253,6.284-7.8c2.372-2.531,5.043-4.951,7.969-7.214
		c5.845-4.532,12.825-8.334,20.612-10.775c3.888-1.227,7.971-2.121,12.177-2.631c1.056-0.099,2.112-0.229,3.179-0.312
		c1.069-0.053,2.143-0.107,3.217-0.162c0.408,0.015-0.445-0.025-0.313-0.02l0.112,0.004l0.227,0.006l0.451,0.015l0.905,0.028
		l1.814,0.056l0.907,0.028l0.455,0.013l0.339,0.052l1.348,0.192c1.74,0.114,3.798,0.693,5.798,1.126
		c1.938,0.686,3.939,1.258,5.805,2.212c3.765,1.773,7.42,4.034,10.523,6.981c3.135,2.902,5.89,6.263,8.107,9.976
		c2.125,3.761,3.725,7.811,4.759,12.007c0.203,1.062,0.404,2.123,0.606,3.181c0.128,0.529,0.161,1.067,0.205,1.605l0.142,1.61
		l0.149,1.612l0.01,0.099c0.005-0.094,0,0.355,0.015-0.186l-0.004,0.229l-0.007,0.456l-0.014,0.911l-0.015,0.91
		c-0.004,0.303-0.002,0.633-0.041,0.812l-0.151,1.295l-0.062,0.656l-0.155,0.718l-0.299,1.441c-0.271,0.937-0.553,1.879-0.89,2.793
		c-0.415,0.878-0.703,1.828-1.221,2.652l-0.696,1.283c-0.253,0.414-0.546,0.801-0.812,1.206
		c-4.341,6.502-11.758,10.323-19.078,10.708l-0.688,0.059c0.058,0.005-0.255-0.001,0.11,0.012l-0.099-0.002l-0.198-0.006
		l-0.395-0.012l-0.79-0.022l-0.394-0.011l-0.265-0.042l-1.077-0.137l-1.204-0.273c-1.587-0.441-3.091-1.138-4.446-2.042
		c-1.369-0.893-2.559-2.033-3.538-3.298c-0.975-1.268-1.81-2.644-2.329-4.118c-0.522-1.464-0.926-2.973-0.989-4.492l-0.027-0.283
		l-0.014-0.141l-0.007-0.072c0.001-0.156-0.011,0.135-0.008,0.073l0.01-0.668c-0.007-0.516,0.048-0.729,0.07-1.006
		c0.058-0.574,0.243-1.263,0.439-1.861c0.889-2.441,2.843-4.327,5.043-5.19c0.271-0.128,0.553-0.205,0.836-0.286
		c0.278-0.097,0.564-0.152,0.851-0.198c0.282-0.067,0.569-0.104,0.857-0.115l0.429-0.038l0.055-0.006c0.004,0,0,0,0.001,0
		l0.228,0.018c0.346,0.029,0.689,0.058,1.028,0.086c0.173,0.076,0.343,0.134,0.521,0.175c0.169,0.006,0.39,0.152,0.597,0.252
		c0.199,0.121,0.447,0.167,0.61,0.338c0.182,0.146,0.365,0.286,0.554,0.422c0.186,0.138,0.304,0.34,0.465,0.5
		c0.35,0.309,0.501,0.74,0.755,1.102c0.159,0.404,0.331,0.807,0.423,1.219c0.03,0.21,0.059,0.418,0.088,0.624l0.026,0.154
		l0.013,0.077l0.007,0.038c-0.003,0.084,0.001,0.044,0.006-0.014l-0.019,0.279l-0.026,0.407c-0.007,0.146-0.046,0.121-0.059,0.19
		c-0.05,0.098-0.006,0.179-0.105,0.33c-0.078,0.131-0.109,0.291-0.203,0.409c-0.095,0.118-0.181,0.238-0.261,0.365
		c-0.408,0.435-0.919,0.692-1.428,0.831c-0.131,0.014-0.26,0.031-0.39,0.055l-0.095,0.019c-0.005,0,0.008,0.001,0.013,0.001
		l-0.29-0.023c-0.043-0.004-0.107-0.007-0.133-0.012l-0.015-0.02c-0.011-0.01-0.021-0.013-0.035-0.01
		c-0.025,0.015-0.126-0.065-0.189-0.079c-0.281-0.15-0.476-0.404-0.573-0.654c-0.071-0.121-0.062-0.255-0.1-0.376l-0.003-0.012
		c0.006-0.137-0.012,0.175-0.009,0.132l0.001-0.048l0.004-0.095l0.004-0.185c0.002-0.012-0.01,0.051-0.051,0.05
		c-0.05-0.108-0.063-0.285-0.036-0.484c0.063-0.385,0.357-0.72,0.357-0.72l0.002-0.786c0.007,0.05-0.369-0.441-1.367-0.258
		c-0.479,0.099-1.091,0.431-1.485,1.152c-0.104,0.212-0.192,0.496-0.247,0.715l-0.033,0.181l-0.017,0.094l-0.008,0.047
		c0-0.026-0.015,0.301-0.008,0.18l0.001,0.037c0.022,0.393,0.035,0.818,0.18,1.25c0.246,0.864,0.809,1.779,1.741,2.413
		c0.254,0.145,0.449,0.301,0.781,0.423c0.165,0.06,0.333,0.116,0.506,0.166l0.257,0.07l0.154,0.025l0.291,0.044l0.074,0.011
		l0.036,0.006c-0.131-0.007,0.219,0.017,0.203,0.013l0.204-0.008c0.274-0.017,0.554-0.035,0.84-0.052
		c1.127-0.177,2.317-0.669,3.303-1.582c0.224-0.245,0.45-0.501,0.672-0.768s0.374-0.59,0.558-0.899
		c0.331-0.572,0.634-1.748,0.645-2.118l0.056-0.409c0.002,0.026,0.02-0.401,0.01-0.251l-0.003-0.066l-0.008-0.131l-0.015-0.264
		c-0.026-0.354-0.053-0.713-0.078-1.077c-0.102-0.717-0.324-1.452-0.578-2.175c-0.347-0.687-0.638-1.444-1.172-2.062
		c-0.254-0.315-0.477-0.671-0.778-0.955c-0.309-0.278-0.621-0.561-0.936-0.846c-0.305-0.305-0.705-0.48-1.067-0.72
		c-0.381-0.22-0.728-0.462-1.226-0.615c-0.468-0.17-0.949-0.329-1.438-0.468c-0.346-0.054-0.694-0.111-1.047-0.166l-0.262-0.041
		l-0.13-0.02c0.182,0.008-0.321-0.024-0.3-0.02l-0.079-0.001l-0.638,0.002c-0.43-0.008-0.86,0.014-1.294,0.074
		c-0.437,0.043-0.874,0.097-1.308,0.204c-0.438,0.089-0.878,0.184-1.306,0.337c-3.465,1.063-6.758,3.716-8.509,7.577
		c-0.416,0.986-0.763,1.946-0.981,3.101c-0.109,0.588-0.215,1.242-0.229,1.616l-0.059,0.665l-0.006,0.238v0.098l0.002,0.193
		l0.006,0.389c-0.046,2.08,0.325,4.22,0.924,6.333c0.592,2.126,1.61,4.174,2.882,6.093c1.276,1.92,2.878,3.696,4.781,5.166
		c1.894,1.482,4.06,2.695,6.414,3.538l1.799,0.553c0.644,0.155,1.334,0.278,2.01,0.403l0.51,0.09l0.391,0.04l0.788,0.08l0.394,0.041
		l0.196,0.019l0.099,0.01c0.435,0.021,0.185,0.006,0.311,0.011l0.897-0.001c4.803,0.089,9.803-0.892,14.454-3.017
		c1.198-0.466,2.272-1.187,3.417-1.796c1.109-0.668,2.162-1.447,3.232-2.21c2.031-1.662,4.013-3.475,5.671-5.615
		c3.391-4.241,5.917-9.265,7.033-15.033l0.393-2.28c0.076-0.417,0.092-0.694,0.118-0.997l0.078-0.906l0.079-0.907l0.04-0.454
		l0.02-0.227C396.972,117.654,396.959,118.026,396.962,117.855z"/>
</g>
<g id="Vines_Texture">
	<defs>
		<filter id="Adobe_OpacityMaskFilter" filterUnits="userSpaceOnUse" x="-156.125" y="-32" width="840.96" height="560.64">
			<feColorMatrix  type="matrix" values="1 0 0 0 0  0 1 0 0 0  0 0 1 0 0  0 0 0 1 0"/>
		</filter>
	</defs>
	<mask maskUnits="userSpaceOnUse" x="-156.125" y="-32" width="840.96" height="560.64" id="SVGID_1_">
		<g filter="url(#Adobe_OpacityMaskFilter)">
			<g>
				<path fill="#FFFFFF" d="M27.735,346.159c0.004-0.561,0.009-1.122,0.014-1.684c0.009-1.125,0.018-2.253,0.027-3.386
					c0.066-1.131,0.134-2.267,0.199-3.406c0.034-0.569,0.068-1.139,0.103-1.71l0.055-0.856l0.096-0.856
					c0.126-1.142,0.253-2.287,0.382-3.435c0.069-0.574,0.117-1.149,0.205-1.722c0.094-0.573,0.188-1.146,0.282-1.721
					c0.188-1.147,0.379-2.297,0.567-3.45c0.211-1.149,0.489-2.293,0.732-3.443c0.954-4.602,2.372-9.161,3.923-13.689
					c0.414-1.126,0.871-2.242,1.307-3.364c0.453-1.116,0.848-2.25,1.377-3.344c1.019-2.201,1.959-4.425,3.142-6.567
					c4.484-8.644,10.114-16.846,16.839-24.104c0.845-0.902,1.689-1.802,2.533-2.701c0.212-0.223,0.416-0.452,0.636-0.669l0.67-0.644
					l1.338-1.282l1.335-1.279l0.666-0.637l0.334-0.318l0.25-0.234l0.17-0.146l1.354-1.163c0.208-0.186,0.495-0.405,0.763-0.616
					l0.811-0.631l0.81-0.625l0.812-0.564c0.548-0.368,1.067-0.764,1.636-1.104c0.562-0.347,1.122-0.695,1.683-1.041
					c0.572-0.331,1.158-0.644,1.735-0.963c2.341-1.235,4.763-2.323,7.267-3.186c2.503-0.86,5.059-1.537,7.627-2.037
					c2.579-0.471,5.164-0.761,7.727-0.891c2.564-0.116,5.1-0.034,7.582,0.169c2.483,0.222,4.9,0.622,7.25,1.116
					c4.676,1.064,9.045,2.604,12.944,4.556c3.911,1.931,7.399,4.194,10.407,6.651c0.74,0.625,1.501,1.217,2.181,1.865
					c0.347,0.317,0.691,0.633,1.034,0.947l0.257,0.235c0.188,0.179,0.085,0.083,0.141,0.139l0.057,0.06l0.112,0.119l0.45,0.475
					l0.446,0.472c0.074,0.081,0.146,0.15,0.224,0.241l0.234,0.292c0.309,0.392,0.616,0.781,0.921,1.167
					c0.16,0.194,0.28,0.388,0.402,0.581l0.368,0.577c0.239,0.386,0.502,0.757,0.687,1.16c1.674,3.134,2.435,6.397,2.341,9.449
					c-0.068,3.05-0.878,5.885-2.216,8.266c-0.371,0.581-0.708,1.161-1.092,1.7c-0.42,0.522-0.804,1.047-1.234,1.524
					c-0.227,0.231-0.451,0.458-0.674,0.685c-0.11,0.112-0.222,0.223-0.331,0.334l-0.165,0.165l-0.081,0.083
					c0.001,0.001-0.16,0.145-0.112,0.099l-0.041,0.034l-0.328,0.267c-0.059,0.046-0.102,0.084-0.171,0.136l-0.245,0.17
					c-0.165,0.11-0.329,0.219-0.493,0.328c-0.162,0.098-0.317,0.172-0.476,0.257c-1.262,0.655-2.646,0.979-3.934,1.012
					c-1.291,0.042-2.483-0.173-3.504-0.517c-1.023-0.342-1.882-0.816-2.571-1.326c-0.362-0.241-0.646-0.521-0.938-0.769
					l-0.027-0.023l-0.073-0.07l-0.041-0.043l-0.079-0.084c-0.03-0.034-0.043-0.044-0.088-0.096l-0.124-0.148
					c-0.176-0.208-0.27-0.373-0.38-0.548c-0.396-0.705-0.527-1.398-0.504-1.992c0.019-0.597,0.181-1.098,0.374-1.479
					c0.192-0.383,0.408-0.648,0.56-0.817c0.162-0.165,0.243-0.248,0.243-0.248l2.184,1.717c0.008,0.006-0.113,0.09-0.217,0.341
					c-0.054,0.124-0.098,0.297-0.089,0.513c0.004,0.216,0.076,0.474,0.237,0.722c0.043,0.055,0.096,0.135,0.118,0.15l0.019,0.025
					c0.003,0.007,0.048,0.048,0.07,0.07l0.085,0.081l0.037,0.035c-0.016-0.015-0.031-0.031-0.023-0.024l0.019,0.015
					c0.213,0.155,0.411,0.344,0.664,0.488c0.477,0.321,1.051,0.601,1.705,0.784c1.288,0.376,2.97,0.367,4.348-0.455
					c0.082-0.051,0.18-0.1,0.252-0.15c0.064-0.05,0.13-0.099,0.196-0.146l0.104-0.068c0.041-0.032,0.1-0.088,0.15-0.132l0.312-0.281
					c0.312-0.351,0.634-0.711,0.963-1.08c0.326-0.402,0.608-0.845,0.929-1.276c0.285-0.451,0.527-0.936,0.807-1.413
					c0.973-1.974,1.496-4.311,1.411-6.796c0.019-0.622-0.116-1.25-0.181-1.886c-0.031-0.319-0.138-0.633-0.201-0.952l-0.11-0.479
					c-0.032-0.162-0.073-0.321-0.135-0.478c-0.222-0.631-0.402-1.281-0.719-1.901c-0.15-0.312-0.265-0.637-0.445-0.942
					c-0.175-0.305-0.353-0.613-0.531-0.922c-0.161-0.317-0.396-0.601-0.602-0.9l-0.317-0.447c-0.105-0.15-0.21-0.305-0.329-0.427
					c-0.227-0.263-0.456-0.527-0.686-0.793l-0.169-0.201c-0.063-0.07-0.153-0.149-0.229-0.223l-0.472-0.453l-0.477-0.455
					l-0.119-0.114l-0.06-0.057c0.018,0.016-0.123-0.12,0.023,0.022l-0.245-0.203c-0.329-0.272-0.659-0.545-0.99-0.82
					c-0.648-0.563-1.371-1.068-2.07-1.605c-2.841-2.106-6.081-3.993-9.641-5.555c-3.547-1.584-7.458-2.761-11.559-3.514
					c-2.06-0.337-4.16-0.596-6.297-0.695c-2.135-0.081-4.296-0.061-6.459,0.13c-2.161,0.203-4.32,0.54-6.453,1.023
					c-2.123,0.512-4.214,1.167-6.245,1.964c-2.03,0.8-3.976,1.787-5.842,2.883c-0.459,0.285-0.927,0.56-1.382,0.852
					c-0.444,0.305-0.89,0.609-1.334,0.915c-0.452,0.297-0.858,0.647-1.292,0.967l-0.641,0.489l-0.578,0.495l-0.58,0.493
					c-0.193,0.166-0.38,0.313-0.603,0.532l-1.288,1.22c-0.754,0.795-1.511,1.593-2.27,2.393l-1.173,1.238l-0.588,0.621
					c-0.19,0.21-0.368,0.43-0.552,0.645c-0.732,0.864-1.465,1.729-2.198,2.596c-5.834,6.962-10.574,14.73-14.237,22.826
					c-0.977,2.004-1.718,4.088-2.538,6.138c-0.431,1.019-0.729,2.077-1.087,3.115c-0.339,1.043-0.701,2.08-1.022,3.125
					c-1.179,4.206-2.244,8.417-2.874,12.657c-0.161,1.059-0.358,2.11-0.49,3.167c-0.113,1.058-0.227,2.115-0.338,3.168
					c-0.058,0.526-0.114,1.052-0.171,1.577c-0.052,0.524-0.062,1.053-0.097,1.578c-0.057,1.05-0.115,2.098-0.172,3.142l-0.043,0.782
					l-0.004,0.782c-0.001,0.521-0.003,1.042-0.004,1.561c-0.003,1.038-0.006,2.072-0.008,3.103c0.05,1.03,0.101,2.056,0.15,3.078
					c0.024,0.511,0.05,1.021,0.073,1.529l0.039,0.762l0.076,0.759c0.679,8.093,2.259,15.835,4.466,22.991
					c2.203,7.16,5.033,13.729,8.123,19.581c0.395,0.728,0.785,1.449,1.17,2.162c0.384,0.713,0.756,1.42,1.186,2.095
					c0.826,1.362,1.631,2.691,2.417,3.988c1.712,2.524,3.266,4.949,4.955,7.107c0.408,0.547,0.81,1.084,1.204,1.613
					c0.197,0.264,0.395,0.525,0.587,0.785c0.21,0.252,0.416,0.501,0.62,0.748c0.814,0.988,1.6,1.941,2.354,2.856
					c0.731,0.931,1.535,1.757,2.264,2.571c0.734,0.81,1.435,1.581,2.1,2.313c0.328,0.379,0.665,0.693,0.986,1.018
					c0.321,0.321,0.635,0.634,0.937,0.937c0.605,0.605,1.171,1.173,1.696,1.701c0.264,0.264,0.516,0.518,0.758,0.763
					c0.281,0.259,0.553,0.506,0.81,0.743c0.521,0.476,0.994,0.908,1.417,1.294c1.692,1.548,2.596,2.372,2.596,2.372l-0.161,0.127
					H57.85c-0.475-0.578-0.958-1.167-1.463-1.782c-0.771-0.957-1.62-1.934-2.394-3.018c-0.794-1.07-1.62-2.185-2.478-3.34
					c-0.214-0.289-0.43-0.58-0.646-0.874c-0.204-0.302-0.409-0.606-0.615-0.914c-0.412-0.614-0.831-1.239-1.258-1.874
					c-1.755-2.513-3.362-5.312-5.112-8.228c-0.799-1.491-1.618-3.019-2.457-4.584c-0.434-0.775-0.81-1.584-1.194-2.401
					c-0.387-0.815-0.777-1.639-1.172-2.472c-3.081-6.684-5.812-14.126-7.803-22.158c-1.994-8.028-3.251-16.643-3.491-25.57
					l-0.034-0.837L27.735,346.159z M13.043,330.368c0.001,0,0.002,0,0.003,0.001c0.025,0.007,0.013,0.002-0.005-0.002
					L13.043,330.368L13.043,330.368z M28.275,330.713c0.115,0.183,0.202,0.375,0.284,0.568c0.017-0.152,0.033-0.304,0.051-0.457
					c0.069-0.574,0.117-1.149,0.205-1.722c0.094-0.573,0.188-1.146,0.282-1.721c0.167-1.018,0.336-2.038,0.503-3.06
					c-0.104-0.086-0.204-0.176-0.316-0.256c-0.416-0.313-0.821-0.641-1.255-0.942c-0.449-0.281-0.901-0.563-1.356-0.847
					c-0.222-0.147-0.461-0.272-0.705-0.39l-0.729-0.364l-0.728-0.361c-0.252-0.106-0.511-0.203-0.766-0.304l-0.766-0.298
					l-0.383-0.148l-0.096-0.037l-0.149-0.054l-0.046-0.013l-0.18-0.052l-0.72-0.204c-0.281-0.07-0.63-0.139-0.941-0.203
					c-0.159-0.03-0.323-0.067-0.477-0.088l-0.452-0.051c-0.301-0.027-0.598-0.077-0.898-0.08l-0.902-0.019
					c-0.3,0-0.598,0.03-0.896,0.046c-1.185,0.098-2.35,0.318-3.422,0.707c-1.074,0.379-2.089,0.86-2.962,1.476
					c-0.881,0.602-1.662,1.292-2.28,2.06c-0.332,0.369-0.583,0.778-0.846,1.171c-0.132,0.197-0.225,0.41-0.335,0.613l-0.158,0.306
					l-0.04,0.076l-0.02,0.038c0.002-0.005-0.054,0.111-0.032,0.07l-0.007,0.017l-0.054,0.141l-0.106,0.28l-0.109,0.378
					c-0.082,0.263-0.102,0.489-0.136,0.724c-0.028,0.234-0.027,0.469-0.028,0.7c0.024,0.23,0.022,0.46,0.075,0.684
					c0.162,0.896,0.551,1.724,1.108,2.405c0.56,0.683,1.268,1.225,2.029,1.604c0.187,0.1,0.381,0.182,0.577,0.255l0.146,0.056
					l0.073,0.028l0.034,0.015l0.019,0.007c0.162,0.055,0.054,0.017,0.096,0.031l0.264,0.062l0.261,0.062
					c0.1,0.019,0.243,0.03,0.362,0.042c0.248,0.022,0.5,0.043,0.707,0.009c0.864-0.068,1.641-0.384,2.174-0.848
					c0.145-0.104,0.246-0.244,0.364-0.361c0.055-0.062,0.115-0.12,0.162-0.185l0.123-0.201l0.116-0.199l0.058-0.097l0.014-0.024
					c0.044-0.098,0.014-0.034,0.023-0.059l0.004-0.011l0.014-0.043l0.056-0.172c0.018-0.062,0.03-0.171,0.04-0.255
					c0.065-0.675-0.297-1.192-0.744-1.51c-0.108-0.084-0.229-0.147-0.352-0.197l-0.09-0.04l-0.044-0.019l-0.021-0.01
					c0.033,0.011-0.061-0.021-0.054-0.018l-0.009-0.002c-0.05-0.011-0.098-0.023-0.146-0.034c-0.375-0.068-0.62,0-0.859,0.102
					c-0.227,0.104-0.396,0.263-0.492,0.429l-0.035,0.061l-0.018,0.03l-0.018,0.038l-0.002,0.006l-0.004,0.011
					c-0.008,0.032-0.017,0.042-0.031,0.124c-0.024,0.144,0,0.221,0.033,0.318c0.069,0.18,0.215,0.305,0.354,0.373l0.054,0.025
					l0.025,0.011l0.007,0.002c-0.057-0.016,0.084,0.025,0.071,0.021l0.007,0.001c0.021,0.003,0.04,0.006,0.059,0.008
					c0.003,0.002,0.067,0.008,0.127,0.004c0.056-0.003,0.109-0.013,0.156-0.025c0.147-0.055,0.225-0.124,0.265-0.18
					c0.043-0.055,0.058-0.083,0.058-0.083l-0.592-0.234c0,0-0.006-0.029,0.055-0.054c0.016-0.007,0.035-0.01,0.056-0.009
					c0.028,0.008,0.055,0.016,0.023,0.006v0l-0.001-0.002c-0.006-0.001-0.012-0.003-0.018-0.004l0,0c0.006,0,0.01,0.002,0.016,0.003
					l-0.004-0.004c-0.012-0.012-0.02-0.026-0.02-0.044c-0.021,0.053,0.067-0.162,0.235-0.19c0.037-0.017,0.084-0.019,0.126-0.021
					c0.021,0.002,0.049-0.001,0.062,0.002c0.009,0.006,0.015,0.006,0.027,0.003c0.042,0.015,0.087,0.029,0.131,0.044
					c-0.02-0.007-0.045-0.015-0.019-0.005l0.012,0.007l0.022,0.014l0.044,0.028c0.065,0.032,0.124,0.07,0.173,0.123
					c0.114,0.087,0.187,0.216,0.245,0.346c0.023,0.067,0.036,0.139,0.047,0.209c-0.006,0.07,0.009,0.155-0.016,0.196
					c-0.012,0.03,0.002,0.039-0.019,0.089l-0.075,0.166l-0.02,0.042v0c0.003-0.007,0.005-0.013,0.012-0.027l-0.012,0.016
					l-0.049,0.06l-0.095,0.123l-0.095,0.125c-0.033,0.04-0.082,0.071-0.122,0.107c-0.088,0.066-0.155,0.152-0.258,0.208
					c-0.37,0.263-0.882,0.397-1.388,0.387c-0.139,0.014-0.233-0.021-0.336-0.034c-0.055-0.011-0.092-0.003-0.165-0.023l-0.252-0.085
					l-0.255-0.087c0.001,0,0,0,0,0c0.012,0.004,0.028,0.01,0.062,0.021l-0.013-0.007l-0.025-0.014l-0.049-0.026l-0.103-0.053
					c-0.137-0.066-0.271-0.138-0.396-0.225c-0.514-0.326-0.959-0.756-1.282-1.262c-0.326-0.505-0.509-1.091-0.538-1.686
					c-0.021-0.148,0.009-0.298,0.008-0.447c0.024-0.148,0.038-0.297,0.077-0.444c0.043-0.144,0.075-0.303,0.133-0.413l0.073-0.186
					l0.141-0.269l0.07-0.135l0.009-0.017c0.025-0.052-0.024,0.052-0.016,0.036l0.02-0.028l0.038-0.056l0.154-0.225
					c0.108-0.147,0.193-0.306,0.315-0.447c0.245-0.279,0.466-0.574,0.756-0.825c0.534-0.534,1.183-0.985,1.881-1.363
					c0.689-0.391,1.471-0.661,2.264-0.858c0.794-0.207,1.629-0.272,2.445-0.263c0.206,0.011,0.41,0.005,0.614,0.026l0.605,0.072
					c0.202,0.018,0.397,0.079,0.594,0.114l0.296,0.059c0.093,0.022,0.169,0.053,0.255,0.079c0.173,0.057,0.315,0.088,0.514,0.155
					l0.69,0.269l0.172,0.067l0.044,0.018c-0.196-0.07-0.045-0.015-0.083-0.028l0.018,0.009l0.072,0.038l0.29,0.149l0.579,0.294
					c0.19,0.099,0.386,0.192,0.574,0.293l0.534,0.342l0.533,0.337c0.178,0.108,0.354,0.222,0.51,0.354
					c0.323,0.252,0.646,0.502,0.966,0.752c0.302,0.264,0.578,0.548,0.866,0.815c0.299,0.258,0.538,0.56,0.786,0.849
					c0.242,0.292,0.514,0.561,0.706,0.875c0.212,0.301,0.419,0.599,0.626,0.896C27.938,330.1,28.108,330.408,28.275,330.713z
					 M85.212,317.728c-0.796-1.719-1.975-3.3-3.355-4.721c-0.674-0.729-1.474-1.353-2.257-1.992c-0.851-0.574-1.646-1.16-2.675-1.67
					l-0.736-0.388l-0.183-0.095l-0.154-0.067l-0.308-0.133l-0.611-0.266l-0.306-0.133l-0.153-0.066l-0.075-0.034l-0.039-0.017
					l-0.186-0.069c-0.467-0.164-0.932-0.327-1.396-0.491c-0.47-0.153-0.944-0.29-1.415-0.433c-1.897-0.539-3.836-0.922-5.773-1.149
					c-3.872-0.458-7.727-0.296-11.254,0.384c-1.765,0.335-3.456,0.778-5.046,1.316c-1.162,0.399-2.251,0.854-3.305,1.33
					c-0.065,0.201-0.133,0.402-0.195,0.604c-0.968,3.454-1.845,6.913-2.481,10.387c0.251-0.273,0.511-0.548,0.794-0.826
					c0.632-0.638,1.374-1.263,2.186-1.899c0.822-0.624,1.736-1.236,2.737-1.821c1.011-0.57,2.107-1.113,3.293-1.599
					c1.186-0.479,2.461-0.891,3.807-1.225c2.687-0.671,5.673-0.991,8.756-0.809c1.54,0.089,3.104,0.3,4.656,0.641
					c0.386,0.094,0.776,0.179,1.164,0.279c0.384,0.109,0.77,0.218,1.156,0.329c0.142,0.052-0.153-0.06-0.108-0.042l0.039,0.014
					l0.08,0.028l0.156,0.058l0.315,0.114l0.633,0.229l0.316,0.116l0.158,0.057l0.112,0.056l0.448,0.215
					c0.598,0.238,1.244,0.653,1.889,1.018c0.588,0.433,1.216,0.838,1.741,1.343c1.082,0.972,2.06,2.078,2.747,3.325
					c0.703,1.237,1.212,2.566,1.48,3.938c0.229,1.375,0.233,2.775,0.02,4.153c-0.076,0.342-0.15,0.684-0.226,1.024
					c-0.027,0.173-0.091,0.338-0.149,0.505l-0.173,0.499l-0.17,0.5l-0.01,0.031c0.015-0.028-0.049,0.105,0.03-0.055l-0.031,0.068
					l-0.066,0.136l-0.131,0.271l-0.13,0.271c-0.044,0.09-0.089,0.189-0.128,0.237l-0.232,0.371l-0.112,0.189l-0.153,0.197
					l-0.306,0.396c-0.224,0.249-0.454,0.498-0.698,0.732c-0.269,0.214-0.501,0.465-0.797,0.651l-0.423,0.302
					c-0.146,0.094-0.304,0.176-0.453,0.266c-2.429,1.438-5.571,1.711-8.206,0.969l-0.251-0.063c0.021,0.008-0.09-0.03,0.038,0.017
					l-0.035-0.012l-0.068-0.025l-0.138-0.05l-0.275-0.099l-0.137-0.05l-0.088-0.044l-0.361-0.167l-0.388-0.223
					c-0.498-0.318-0.932-0.703-1.286-1.133c-0.359-0.428-0.62-0.909-0.791-1.402c-0.168-0.494-0.273-1.004-0.253-1.507
					c0.019-0.5,0.085-0.999,0.271-1.46l0.029-0.088l0.016-0.044l0.007-0.022c0.022-0.046-0.022,0.04-0.013,0.021l0.097-0.199
					c0.067-0.155,0.117-0.213,0.164-0.293c0.099-0.165,0.259-0.35,0.41-0.506c0.651-0.627,1.601-0.962,2.495-0.962
					c0.113-0.007,0.224,0.003,0.335,0.012c0.11,0.003,0.219,0.021,0.327,0.04c0.109,0.014,0.215,0.036,0.318,0.067l0.156,0.038
					l0.02,0.005c0.004,0.001-0.002-0.001-0.007-0.003l0.085,0.036c0.118,0.049,0.235,0.098,0.352,0.146
					c0.05,0.043,0.103,0.08,0.159,0.113c0.059,0.021,0.116,0.091,0.176,0.146c0.053,0.06,0.135,0.103,0.169,0.172
					c0.043,0.066,0.088,0.129,0.136,0.191c0.047,0.063,0.061,0.138,0.096,0.205c0.08,0.133,0.074,0.281,0.113,0.419
					c0,0.139,0.006,0.281-0.02,0.414c-0.018,0.067-0.036,0.132-0.055,0.197l-0.013,0.05l-0.006,0.024l-0.003,0.012
					c-0.007,0.013-0.007,0.016-0.005,0.013l-0.036,0.065l-0.064,0.119c-0.023,0.043-0.034,0.031-0.048,0.049
					c-0.03,0.024-0.025,0.054-0.083,0.087c-0.045,0.03-0.079,0.074-0.128,0.098c-0.049,0.024-0.097,0.05-0.142,0.079
					c-0.205,0.083-0.42,0.1-0.617,0.082c-0.05-0.011-0.098-0.021-0.146-0.029l-0.035-0.006c-0.004-0.001,0.003,0.002,0.014,0.006
					l-0.009-0.003l-0.101-0.041c-0.015-0.006-0.035-0.015-0.045-0.02l-0.003-0.008c-0.002-0.004-0.004-0.006-0.011-0.007
					c-0.011,0.001-0.035-0.034-0.056-0.046c-0.078-0.078-0.111-0.177-0.111-0.263c-0.009-0.044,0.013-0.084,0.017-0.125l0.001-0.004
					c0.021-0.04-0.028,0.051-0.022,0.039l0.008-0.014l0.015-0.028l0.025-0.055c0.003-0.003-0.01,0.014-0.023,0.009
					c-0.003-0.038,0.017-0.093,0.054-0.149c0.075-0.108,0.226-0.174,0.226-0.174l0.109-0.235c-0.005,0.016-0.069-0.175-0.447-0.237
					c-0.182-0.027-0.443,0.001-0.683,0.171c-0.065,0.051-0.135,0.125-0.186,0.185l-0.036,0.051l-0.02,0.025l-0.01,0.013
					c0.004-0.008-0.046,0.088-0.026,0.054l-0.005,0.011c-0.047,0.12-0.102,0.249-0.109,0.395c-0.033,0.288,0.039,0.627,0.279,0.927
					c0.07,0.073,0.117,0.144,0.219,0.219c0.049,0.037,0.1,0.074,0.154,0.109l0.081,0.051l0.051,0.025l0.097,0.048l0.024,0.012
					l0.012,0.006c-0.045-0.018,0.075,0.03,0.07,0.027l0.073,0.021c0.099,0.027,0.199,0.056,0.304,0.083
					c0.421,0.079,0.908,0.071,1.383-0.087c0.113-0.046,0.228-0.097,0.343-0.15s0.213-0.133,0.32-0.204
					c0.197-0.133,0.466-0.449,0.52-0.559l0.076-0.116c-0.002,0.008,0.063-0.118,0.039-0.074l0.008-0.02l0.017-0.041l0.029-0.08
					c0.04-0.109,0.08-0.22,0.122-0.332c0.063-0.227,0.086-0.473,0.098-0.72c-0.028-0.247-0.026-0.506-0.13-0.754
					c-0.046-0.124-0.075-0.256-0.143-0.377c-0.07-0.12-0.141-0.241-0.213-0.364c-0.065-0.127-0.183-0.226-0.277-0.341
					c-0.104-0.11-0.192-0.224-0.347-0.328c-0.141-0.106-0.289-0.21-0.442-0.31c-0.113-0.056-0.229-0.114-0.346-0.172l-0.087-0.042
					l-0.043-0.021c0.062,0.024-0.109-0.045-0.104-0.041l-0.027-0.01l-0.226-0.074c-0.149-0.053-0.306-0.097-0.466-0.13
					c-0.16-0.039-0.322-0.073-0.489-0.092c-0.166-0.024-0.335-0.048-0.507-0.052c-1.369-0.088-2.896,0.32-4.047,1.271
					c-0.283,0.247-0.538,0.494-0.774,0.814c-0.12,0.163-0.247,0.346-0.304,0.457l-0.113,0.192l-0.034,0.071l-0.014,0.029
					l-0.026,0.058l-0.051,0.117c-0.304,0.617-0.469,1.302-0.55,2.004c-0.084,0.706-0.008,1.439,0.175,2.163
					c0.185,0.724,0.504,1.444,0.973,2.107c0.462,0.666,1.059,1.283,1.773,1.812l0.557,0.376c0.205,0.123,0.432,0.24,0.654,0.357
					l0.166,0.087l0.134,0.058l0.265,0.116l0.134,0.059l0.067,0.029l0.032,0.015c0.151,0.056,0.065,0.023,0.108,0.039l0.317,0.105
					c1.681,0.589,3.579,0.883,5.513,0.792c0.487,0.001,0.965-0.088,1.452-0.137c0.484-0.07,0.963-0.18,1.445-0.283
					c0.946-0.259,1.895-0.569,2.775-1.016c1.78-0.872,3.365-2.08,4.556-3.676l0.454-0.637c0.084-0.116,0.128-0.197,0.179-0.284
					l0.152-0.263l0.155-0.263l0.075-0.13l0.038-0.066c0.093-0.183,0.036-0.073,0.061-0.123l0.018-0.038l0.271-0.615l0.271-0.619
					c0.091-0.207,0.185-0.413,0.243-0.63c0.134-0.429,0.267-0.859,0.398-1.291c0.433-1.748,0.587-3.571,0.419-5.394
					C86.55,321.237,86.026,319.437,85.212,317.728z M69.841,329.825l-0.006-0.003C69.854,329.83,69.867,329.835,69.841,329.825z"/>
				<path fill="#FFFFFF" d="M131.377,42.5c-21.171,0-38.334,17.163-38.334,38.333c0,21.171,17.163,38.333,38.334,38.333
					c21.17,0,38.333-17.163,38.333-38.333C169.71,59.662,152.547,42.5,131.377,42.5z M131.377,106.388
					c-14.114,0-25.556-11.442-25.556-25.556c0-14.113,11.441-25.555,25.556-25.555s25.556,11.442,25.556,25.555
					C156.933,94.946,145.491,106.388,131.377,106.388z"/>
				<path fill="#FFFFFF" d="M37.377,217.166c-11.229,0-20.334,9.104-20.334,20.333c0,11.23,9.104,20.333,20.334,20.333
					s20.333-9.104,20.333-20.333C57.71,226.269,48.606,217.166,37.377,217.166z M37.377,251.054
					c-7.487,0-13.556-6.069-13.556-13.556c0-7.486,6.068-13.555,13.556-13.555c7.486,0,13.556,6.069,13.556,13.555
					C50.933,244.985,44.863,251.054,37.377,251.054z"/>
				<path fill="#FFFFFF" d="M409.377,39.166c-11.229,0-20.334,9.104-20.334,20.333c0,11.23,9.105,20.333,20.334,20.333
					c11.23,0,20.334-9.104,20.334-20.333C429.711,48.269,420.607,39.166,409.377,39.166z M409.377,73.054
					c-7.486,0-13.555-6.069-13.555-13.556c0-7.486,6.068-13.555,13.555-13.555s13.557,6.069,13.557,13.555
					C422.934,66.985,416.863,73.054,409.377,73.054z"/>
				<path fill="#FFFFFF" d="M296.18,237.43l-0.082,1.964c-0.563,20.955-3.507,41.173-8.182,60.017
					c-4.666,18.853-11.063,36.322-18.286,52.01c-0.925,1.955-1.841,3.889-2.745,5.802c-0.904,1.915-1.785,3.815-2.802,5.636
					c-1.966,3.673-3.886,7.261-5.758,10.76c-4.1,6.844-7.869,13.413-11.984,19.31c-0.997,1.491-1.979,2.958-2.942,4.401
					c-0.484,0.721-0.966,1.435-1.442,2.143c-0.511,0.69-1.017,1.374-1.517,2.052c-2.01,2.712-3.945,5.327-5.807,7.84
					c-1.811,2.545-3.8,4.836-5.609,7.082c-1.183,1.443-2.316,2.827-3.427,4.183h-57.565l-0.381-0.297c0,0,2.117-1.937,6.085-5.566
					c0.992-0.908,2.1-1.922,3.319-3.038c0.604-0.556,1.238-1.138,1.898-1.744c0.568-0.573,1.16-1.171,1.774-1.791
					c1.234-1.24,2.56-2.572,3.975-3.993c0.71-0.71,1.442-1.443,2.196-2.197c0.753-0.762,1.545-1.501,2.312-2.388
					c1.559-1.72,3.199-3.532,4.921-5.432c1.706-1.911,3.592-3.852,5.304-6.033c1.77-2.15,3.611-4.387,5.521-6.707
					c0.479-0.58,0.961-1.165,1.449-1.756c0.455-0.608,0.915-1.223,1.378-1.842c0.925-1.241,1.865-2.503,2.82-3.787
					c3.959-5.064,7.602-10.755,11.615-16.682c1.841-3.043,3.729-6.165,5.662-9.36c1.007-1.583,1.88-3.244,2.779-4.919
					c0.905-1.673,1.819-3.365,2.743-5.074c7.241-13.735,13.872-29.155,19.036-45.96c5.173-16.796,8.876-34.967,10.467-53.964
					l0.18-1.782l0.091-1.788c0.057-1.194,0.114-2.39,0.172-3.589c0.117-2.4,0.235-4.809,0.354-7.226
					c-0.006-2.419-0.013-4.847-0.02-7.283c-0.003-1.219-0.006-2.44-0.009-3.664l-0.008-1.836l-0.103-1.835
					c-0.135-2.451-0.27-4.909-0.403-7.375c-0.079-1.232-0.106-2.472-0.226-3.704c-0.134-1.232-0.267-2.465-0.399-3.701
					c-0.264-2.473-0.528-4.952-0.793-7.437c-0.307-2.48-0.773-4.947-1.151-7.433c-1.475-9.953-3.973-19.836-6.734-29.71
					c-0.751-2.454-1.601-4.885-2.396-7.334c-0.838-2.438-1.535-4.922-2.547-7.313c-1.924-4.811-3.659-9.703-5.948-14.405
					c-8.585-19.002-19.693-37.235-33.365-53.577c-1.721-2.035-3.439-4.067-5.153-6.094c-0.434-0.504-0.847-1.022-1.295-1.515
					l-1.376-1.455l-2.748-2.908c-1.778-1.877-3.553-3.75-5.32-5.618l-3.019-2.861c-0.523-0.516-0.958-0.861-1.414-1.25l-1.356-1.157
					l-1.355-1.163l-1.503-1.149c-1.016-0.75-1.967-1.571-3.026-2.268c-1.044-0.717-2.086-1.433-3.127-2.147
					c-1.066-0.684-2.161-1.328-3.238-1.998c-4.376-2.572-8.931-4.89-13.691-6.769c-4.762-1.873-9.661-3.409-14.638-4.61
					c-4.998-1.134-10.058-1.925-15.121-2.402c-5.07-0.448-10.136-0.495-15.14-0.305c-5.006,0.233-9.93,0.839-14.758,1.631
					c-9.61,1.767-18.774,4.529-27.089,8.248c-8.342,3.667-15.935,8.097-22.594,13.04C51,45.616,49.305,46.8,47.786,48.123
					c-0.776,0.645-1.55,1.286-2.318,1.924l-0.577,0.478c0.344-0.333,0.016-0.016,0.056-0.055l-0.14,0.134l-0.28,0.269l-1.113,1.068
					l-1.108,1.062c-0.176,0.174-0.385,0.358-0.534,0.523l-0.396,0.472c-0.539,0.625-1.074,1.245-1.606,1.862
					c-0.281,0.288-0.525,0.649-0.771,1.001l-0.744,1.049c-0.484,0.702-1.034,1.37-1.411,2.113c-0.417,0.727-0.833,1.448-1.245,2.164
					c-0.422,0.715-0.688,1.481-1.043,2.212c-0.741,1.456-1.164,2.98-1.685,4.461c-0.144,0.368-0.24,0.743-0.315,1.122l-0.258,1.126
					c-0.149,0.75-0.397,1.486-0.472,2.235c-0.151,1.495-0.467,2.968-0.424,4.427c-0.2,5.834,1.026,11.32,3.309,15.953
					c0.652,1.12,1.22,2.258,1.889,3.316c0.751,1.012,1.411,2.053,2.179,2.997c0.77,0.865,1.521,1.711,2.255,2.535l0.733,0.659
					c0.116,0.102,0.254,0.234,0.353,0.31l0.241,0.162c0.157,0.109,0.31,0.222,0.459,0.341c0.17,0.117,0.399,0.232,0.593,0.351
					c3.229,1.93,7.168,1.953,10.188,1.069c1.534-0.429,2.881-1.086,3.997-1.84c0.592-0.338,1.057-0.783,1.556-1.146l0.045-0.035
					c0.019-0.016-0.02,0.022-0.056,0.057l0.086-0.082l0.198-0.19c0.053-0.053,0.159-0.149,0.166-0.165l0.043-0.059
					c0.054-0.038,0.179-0.225,0.279-0.354c0.376-0.582,0.543-1.188,0.554-1.694c0.021-0.508-0.082-0.914-0.206-1.205
					c-0.244-0.59-0.529-0.786-0.509-0.802l5.117-4.03c0,0,0.19,0.196,0.568,0.581c0.355,0.396,0.862,1.019,1.312,1.918
					c0.452,0.895,0.834,2.07,0.877,3.47c0.053,1.396-0.253,3.022-1.182,4.678c-0.258,0.412-0.478,0.796-0.89,1.285l-0.29,0.349
					c-0.104,0.121-0.135,0.146-0.206,0.224l-0.188,0.199l-0.095,0.1l-0.172,0.167l-0.063,0.055c-0.685,0.58-1.352,1.239-2.199,1.804
					c-1.616,1.197-3.626,2.311-6.028,3.113c-2.392,0.808-5.186,1.312-8.211,1.213c-3.018-0.079-6.263-0.837-9.219-2.375
					c-0.372-0.2-0.735-0.373-1.115-0.604c-0.383-0.254-0.768-0.51-1.155-0.768l-0.573-0.399c-0.163-0.121-0.264-0.211-0.399-0.319
					l-0.771-0.627l-0.097-0.079c0.114,0.105-0.266-0.23-0.261-0.233l-0.192-0.193l-0.386-0.388c-0.258-0.26-0.517-0.522-0.777-0.786
					c-0.52-0.529-1.046-1.065-1.578-1.607c-1.01-1.12-1.909-2.354-2.895-3.577c-0.899-1.266-1.689-2.626-2.558-3.989
					c-3.137-5.589-5.034-12.244-5.192-19.403c-0.223-7.162,1.562-14.823,5.484-22.179c0.434-0.944,1.05-1.815,1.609-2.721
					l0.862-1.354c0.287-0.453,0.566-0.907,0.943-1.362c0.715-0.907,1.435-1.82,2.158-2.738l0.551-0.687
					c0.181-0.213,0.349-0.375,0.524-0.566l1.047-1.107l1.052-1.114l0.264-0.28l0.133-0.14c0.132-0.13-0.108,0.094,0.329-0.327
					l0.602-0.552c0.804-0.736,1.613-1.477,2.425-2.222c1.593-1.521,3.378-2.911,5.112-4.377c7.05-5.768,15.225-11.078,24.391-15.612
					c9.138-4.582,19.377-8.196,30.337-10.692c5.505-1.158,11.171-2.098,16.99-2.618c5.817-0.477,11.76-0.67,17.771-0.397
					c6.005,0.303,12.064,0.984,18.106,2.09c6.022,1.173,12.009,2.763,17.877,4.781c5.868,2.024,11.544,4.578,17.029,7.479
					c1.353,0.75,2.726,1.483,4.066,2.26c1.312,0.813,2.628,1.627,3.944,2.442c1.332,0.802,2.55,1.729,3.833,2.594l1.902,1.323
					l1.899,1.466l1.898,1.48c0.627,0.493,1.301,1.008,1.785,1.444l3.176,2.731l0.397,0.342l0.587,0.55l0.78,0.747l1.561,1.496
					l3.13,3l3.137,3.011l1.571,1.51c0.513,0.512,0.992,1.048,1.489,1.572c1.975,2.108,3.953,4.222,5.936,6.339
					c15.762,17.036,28.954,36.29,39.463,56.578c2.772,5.027,4.978,10.25,7.362,15.415c1.244,2.57,2.167,5.229,3.229,7.85
					c1.02,2.632,2.092,5.252,3.062,7.895c3.633,10.627,6.955,21.329,9.193,32.131c0.569,2.698,1.224,5.383,1.713,8.082
					c0.446,2.705,0.891,5.405,1.334,8.097c0.221,1.348,0.44,2.694,0.66,4.038c0.206,1.346,0.318,2.697,0.481,4.043
					c0.299,2.695,0.6,5.383,0.897,8.063l0.222,2.01l0.127,2.011c0.08,1.34,0.16,2.678,0.24,4.014
					c0.155,2.674,0.311,5.339,0.466,7.995c0.022,2.658,0.046,5.307,0.068,7.946c0.01,1.321,0.02,2.639,0.029,3.954L296.18,237.43z
					 M210.82,38.427c0.012-0.104,0.02-0.209,0.037-0.314c0.109-0.779,0.221-1.572,0.333-2.379c0.372-1.592,0.752-3.236,1.422-4.857
					c1.259-3.254,3.198-6.502,5.842-9.426c2.65-2.931,5.929-5.509,9.858-7.435c0.576-0.264,1.158-0.521,1.74-0.77l1.674-0.562
					c0.552-0.202,1.14-0.315,1.715-0.459c0.576-0.14,1.152-0.279,1.746-0.352c2.346-0.415,4.766-0.455,7.12-0.214
					c4.725,0.447,9.198,2.248,12.628,4.893c0.451,0.308,0.83,0.685,1.232,1.034c0.395,0.358,0.803,0.7,1.139,1.096l1.044,1.15
					l0.128,0.151l0.023,0.033l0.048,0.066l0.096,0.132l0.192,0.264l0.191,0.263c0.06,0.079,0.128,0.176,0.213,0.318
					c0.671,1.058,1.125,1.988,1.423,2.989c0.337,0.988,0.475,2.007,0.538,3.009c0.163,4.033-1.914,7.829-5.059,10.166l-0.604,0.417
					l-0.303,0.205l-0.15,0.102l-0.075,0.05l-0.139,0.085l-0.033,0.018l-0.531,0.29c-0.212,0.11-0.533,0.255-0.798,0.372
					c-1.057,0.437-2.07,0.679-3.136,0.799c-2.109,0.203-4.182-0.165-5.872-0.982c-0.853-0.394-1.611-0.898-2.25-1.468
					c-0.332-0.276-0.611-0.583-0.884-0.888l-0.102-0.114c0.017,0.023-0.244-0.309-0.142-0.179l-0.015-0.025l-0.032-0.048
					l-0.126-0.196l-0.25-0.386c-0.204-0.378-0.424-0.898-0.557-1.329c-0.064-0.408-0.149-0.811-0.151-1.207
					c0.01-0.797,0.182-1.561,0.509-2.246c0.328-0.688,0.808-1.282,1.348-1.783l0.438-0.34l0.218-0.164l0.109-0.081l0.055-0.04
					l0.027-0.02c0.078-0.047-0.137,0.077,0.181-0.11l0.353-0.171c0.065-0.031,0.099-0.052,0.189-0.09l0.355-0.129
					c0.234-0.078,0.489-0.158,0.709-0.2c0.205-0.029,0.409-0.053,0.61-0.073c0.401-0.043,0.802,0.004,1.181,0.039
					c0.75,0.135,1.448,0.373,1.988,0.752c0.289,0.171,0.521,0.378,0.73,0.594l0.157,0.159l0.076,0.079l0.109,0.138l0.01,0.014
					l0.019,0.028l0.144,0.222c0.44,0.78,0.42,1.322,0.34,1.885c-0.118,0.546-0.389,1.018-0.736,1.376
					c-0.355,0.352-0.706,0.612-1.231,0.789c-0.371,0.13-0.594,0.135-0.845,0.16c-0.243-0.003-0.474-0.005-0.677-0.053
					c-0.41-0.076-0.733-0.221-0.962-0.365c-0.466-0.289-0.602-0.526-0.614-0.515l2.408-1.581c0.004-0.004-0.016-0.033-0.082-0.089
					c-0.039-0.022-0.084-0.05-0.148-0.069c-0.034,0.001-0.068-0.023-0.108-0.012c-0.05-0.006-0.05-0.01-0.209,0.036
					c-0.08,0.049-0.028,0-0.021-0.023c0.01-0.021,0.008-0.047,0.008-0.071l-0.077-0.1l-0.026-0.016l-0.05-0.035
					c-0.061-0.053-0.122-0.106-0.207-0.134c-0.139-0.095-0.333-0.111-0.513-0.142c-0.095,0.018-0.192-0.006-0.283,0.025
					c-0.046,0.014-0.092,0.022-0.14,0.027c-0.026,0.011-0.011,0.024-0.022,0.019l-0.015-0.013c-0.027,0.01-0.103,0.058-0.151,0.084
					l-0.201,0.115c-0.007,0.004-0.009,0.006,0.007-0.003l-0.01,0.011l-0.02,0.021l-0.042,0.041l-0.083,0.081l-0.177,0.154
					c-0.198,0.234-0.373,0.488-0.479,0.781c-0.105,0.291-0.133,0.604-0.112,0.919c0.017,0.157,0.087,0.308,0.104,0.466
					c0.08,0.106,0.074,0.14,0.139,0.296l0.283,0.369l0.096,0.125l0.062,0.057c0.172,0.158,0.338,0.321,0.537,0.457
					c0.379,0.29,0.813,0.532,1.292,0.708c0.941,0.378,2.062,0.477,3.123,0.301c0.517-0.094,1.071-0.284,1.487-0.495l0.288-0.153
					l0.505-0.323l0.032-0.02c-0.037,0.023,0.127-0.08-0.075,0.046l0.046-0.037l0.091-0.075l0.182-0.148l0.369-0.292
					c1.881-1.64,2.91-4.098,2.595-6.511c-0.104-0.597-0.227-1.195-0.487-1.758c-0.21-0.575-0.595-1.135-0.859-1.517
					c-0.021-0.043-0.083-0.12-0.163-0.21l-0.213-0.25l-0.215-0.25l-0.106-0.125l-0.054-0.063l-0.026-0.031
					c0.185,0.222,0.035,0.048,0.07,0.091l-0.818-0.765c-0.255-0.27-0.573-0.484-0.871-0.717c-0.306-0.224-0.581-0.479-0.923-0.665
					c-2.549-1.672-5.705-2.687-8.885-2.763c-1.582-0.053-3.171,0.074-4.664,0.456c-0.382,0.065-0.744,0.188-1.106,0.305
					c-0.36,0.121-0.733,0.204-1.072,0.367l-1.034,0.426c-0.275,0.156-0.553,0.303-0.832,0.443c-2.738,1.564-5.09,3.716-6.806,5.972
					c-1.741,2.272-2.925,4.714-3.619,7.101c-0.389,1.188-0.532,2.383-0.712,3.521c-0.027,0.575-0.055,1.14-0.081,1.695
					c-0.06,0.551,0.051,1.096,0.06,1.625c-0.002,1.062,0.295,2.057,0.416,3.008c0.136,0.465,0.269,0.917,0.398,1.358
					c0.116,0.441,0.24,0.867,0.431,1.261c0.345,0.797,0.601,1.559,1.011,2.205c0.37,0.649,0.676,1.31,1.02,1.716
					c0.314,0.46,0.597,0.871,0.843,1.229c0.399,0.469,0.739,0.868,1.017,1.191c0.552,0.647,0.846,0.992,0.846,0.992l-1.346,0.796
					c-1.574-1.682-3.147-3.362-4.717-5.038c-0.497-0.523-0.977-1.06-1.489-1.572l-1.571-1.51l-3.137-3.011l-3.13-3L210.82,38.427z
					 M246.633,30.782c0-0.002,0.001-0.005,0.001-0.007C246.638,30.762,246.578,30.698,246.633,30.782z M246.48,30.589l-0.003-0.003
					c0.003,0.004,0.004,0.005,0.008,0.009L246.48,30.589z M330.61,198.39c-0.041,0.01-0.072,0.023-0.011,0.005
					c0.003,0,0.006-0.001,0.008-0.002l0.001-0.001L330.61,198.39z M346.397,193.809c-0.056,0.541-0.052,1.081-0.176,1.604
					c-0.38,2.103-1.29,4.046-2.601,5.646c-1.308,1.603-2.97,2.875-4.753,3.764c-0.438,0.235-0.893,0.429-1.355,0.599l-0.34,0.133
					l-0.17,0.066l-0.085,0.033l-0.043,0.016c-0.377,0.127-0.127,0.041-0.221,0.072l-0.619,0.146l-0.611,0.145
					c-0.232,0.044-0.57,0.071-0.848,0.099c-0.585,0.053-1.174,0.102-1.658,0.022c-2.026-0.162-3.848-0.902-5.098-1.992
					c-0.338-0.245-0.575-0.571-0.851-0.848c-0.129-0.146-0.271-0.281-0.38-0.435l-0.288-0.473l-0.274-0.465l-0.133-0.229
					l-0.031-0.057c-0.104-0.23-0.034-0.079-0.06-0.136l-0.008-0.026l-0.031-0.102l-0.128-0.404
					c-0.042-0.145-0.073-0.404-0.096-0.599c-0.154-1.586,0.697-2.799,1.743-3.546c0.254-0.199,0.535-0.345,0.824-0.463l0.21-0.093
					l0.104-0.045l0.052-0.022c-0.08,0.026,0.14-0.048,0.124-0.042l0.021-0.005c0.114-0.027,0.229-0.054,0.339-0.08
					c0.88-0.158,1.454,0.001,2.013,0.24c0.533,0.245,0.93,0.617,1.153,1.005l0.086,0.144l0.04,0.07l0.041,0.088l0.004,0.013
					l0.009,0.025c0.021,0.076,0.041,0.098,0.074,0.291c0.058,0.338,0.001,0.518-0.077,0.745c-0.164,0.422-0.503,0.716-0.831,0.876
					l-0.125,0.057l-0.061,0.026l-0.015,0.006c0.133-0.037-0.197,0.058-0.166,0.048l-0.018,0.002
					c-0.049,0.007-0.095,0.014-0.139,0.02c-0.007,0.005-0.158,0.018-0.295,0.009c-0.132-0.007-0.259-0.029-0.366-0.058
					c-0.346-0.128-0.527-0.289-0.623-0.423c-0.1-0.128-0.137-0.197-0.137-0.197l1.392-0.548c0,0,0.013-0.067-0.132-0.126
					c-0.033-0.016-0.08-0.023-0.128-0.021c-0.068,0.019-0.133,0.038-0.057,0.015l0.001-0.001l0.004-0.005
					c0.014-0.003,0.028-0.007,0.041-0.01c-0.001,0-0.002,0-0.003,0c-0.014,0.001-0.022,0.005-0.035,0.008l0.009-0.009
					c0.027-0.025,0.045-0.06,0.044-0.099c-0.037-0.064-0.231-0.396-0.548-0.45c-0.089-0.039-0.197-0.042-0.297-0.05
					c-0.048,0.007-0.114-0.001-0.145,0.006c-0.021,0.014-0.034,0.013-0.064,0.007c-0.106,0.037-0.216,0.074-0.327,0.111
					l-0.021,0.007c-0.03,0.01,0.177-0.059,0.084-0.026l-0.026,0.017l-0.052,0.032l-0.105,0.064c-0.149,0.076-0.289,0.167-0.403,0.29
					c-0.268,0.204-0.437,0.506-0.573,0.811c-0.056,0.157-0.086,0.327-0.11,0.492c0.013,0.163-0.019,0.365,0.037,0.461
					c0.026,0.071-0.006,0.09,0.043,0.209l0.175,0.389l0.043,0.092c-0.008-0.017-0.011-0.025-0.024-0.055l0.028,0.035l0.113,0.142
					l0.224,0.287l0.219,0.293c0.082,0.092,0.193,0.166,0.288,0.251c0.207,0.155,0.364,0.359,0.605,0.488
					c0.867,0.617,2.066,0.933,3.253,0.909c0.322,0.032,0.547-0.05,0.784-0.08c0.131-0.025,0.217-0.008,0.389-0.054l0.589-0.201
					l0.598-0.203c-0.069,0.022,0.208-0.069-0.146,0.047l0.029-0.015l0.059-0.031l0.118-0.062l0.238-0.123
					c0.322-0.154,0.637-0.326,0.928-0.53c1.204-0.764,2.249-1.774,3.008-2.962c0.764-1.187,1.188-2.563,1.261-3.957
					c0.048-0.347-0.022-0.701-0.018-1.049c-0.058-0.348-0.092-0.698-0.181-1.042c-0.104-0.336-0.179-0.711-0.313-0.968l-0.172-0.436
					l-0.329-0.631l-0.165-0.317l-0.021-0.04c-0.059-0.123,0.059,0.122,0.038,0.085l-0.046-0.065l-0.09-0.132l-0.362-0.527
					c-0.251-0.347-0.453-0.718-0.738-1.047c-0.574-0.657-1.093-1.349-1.772-1.939c-1.249-1.251-2.768-2.312-4.405-3.199
					c-1.618-0.918-3.45-1.551-5.308-2.014c-1.859-0.484-3.817-0.64-5.732-0.617c-0.48,0.026-0.96,0.011-1.436,0.061l-1.421,0.169
					c-0.474,0.042-0.931,0.186-1.394,0.268l-0.692,0.14c-0.217,0.053-0.396,0.125-0.596,0.184c-0.405,0.133-0.741,0.208-1.203,0.364
					l-1.619,0.633l-0.403,0.158l-0.102,0.039c0.459-0.164,0.103-0.033,0.194-0.064l-0.043,0.022l-0.17,0.088l-0.68,0.349
					l-1.355,0.692c-0.449,0.231-0.905,0.45-1.346,0.688l-1.253,0.803l-1.248,0.792c-0.421,0.255-0.831,0.52-1.197,0.833
					c-0.757,0.591-1.512,1.179-2.262,1.765c-0.709,0.619-1.355,1.287-2.031,1.914c-0.702,0.606-1.262,1.315-1.843,1.993
					c-0.568,0.688-1.204,1.316-1.655,2.055c-0.493,0.707-0.981,1.408-1.466,2.103c-0.402,0.73-0.8,1.454-1.193,2.17
					c-0.267,0.429-0.473,0.878-0.664,1.329c-0.04-0.357-0.079-0.711-0.119-1.069c-0.163-1.346-0.275-2.697-0.481-4.043
					c-0.22-1.344-0.439-2.69-0.66-4.038c-0.393-2.387-0.787-4.781-1.183-7.178c0.246-0.202,0.48-0.414,0.744-0.603
					c0.976-0.737,1.926-1.505,2.939-2.211c1.055-0.659,2.115-1.322,3.18-1.988c0.52-0.345,1.082-0.637,1.655-0.916l1.704-0.855
					l1.708-0.848c0.59-0.25,1.195-0.476,1.791-0.713l1.798-0.699l0.897-0.346l0.224-0.087l0.35-0.128l0.105-0.029l0.422-0.12
					l1.688-0.478c0.659-0.165,1.477-0.327,2.207-0.477c0.372-0.071,0.758-0.157,1.118-0.21l1.058-0.118
					c0.705-0.063,1.4-0.18,2.108-0.188l2.113-0.043c0.702-0.001,1.402,0.07,2.099,0.108c2.777,0.23,5.507,0.745,8.022,1.658
					c2.516,0.89,4.893,2.019,6.94,3.464c2.065,1.412,3.896,3.032,5.343,4.833c0.779,0.865,1.366,1.828,1.985,2.75
					c0.308,0.462,0.524,0.963,0.785,1.438l0.37,0.718l0.092,0.179l0.046,0.089c-0.005-0.011,0.126,0.26,0.077,0.165l0.016,0.042
					l0.126,0.331l0.248,0.658l0.257,0.888c0.191,0.616,0.236,1.147,0.319,1.7C346.397,192.716,346.394,193.267,346.397,193.809z
					 M328.387,200.776l-0.004-0.009C328.413,200.836,328.372,200.743,328.387,200.776z M181.442,216.549
					c1.131,0.242,2.253,0.5,3.386,0.664c1.144,0.113,2.265,0.323,3.405,0.321c4.532,0.213,8.981-0.475,12.921-1.858l0.742-0.247
					c0.103-0.038-0.099,0.041,0.253-0.093l0.078-0.034l0.156-0.068l0.312-0.137l0.624-0.272l0.311-0.136l0.393-0.204
					c0.518-0.274,1.049-0.55,1.53-0.836l1.308-0.884c1.673-1.24,3.07-2.689,4.154-4.252c1.098-1.557,1.847-3.246,2.28-4.947
					c0.429-1.699,0.607-3.418,0.409-5.076c-0.189-1.65-0.576-3.256-1.287-4.705l-0.121-0.275l-0.061-0.137l-0.031-0.068
					l-0.083-0.166l-0.263-0.452c-0.134-0.258-0.433-0.689-0.713-1.072c-0.556-0.751-1.151-1.331-1.815-1.909
					c-2.696-2.232-6.276-3.19-9.483-2.983c-0.403,0.01-0.798,0.065-1.188,0.123c-0.393,0.044-0.771,0.126-1.146,0.217
					c-0.378,0.078-0.741,0.18-1.094,0.304l-0.527,0.174l-0.065,0.022c0.017-0.009-0.389,0.153-0.241,0.097l-0.102,0.05l-0.203,0.1
					c-0.273,0.136-0.543,0.271-0.812,0.405c-0.357,0.232-0.705,0.476-1.036,0.725c-0.362,0.245-0.57,0.511-0.813,0.77
					c-0.222,0.269-0.496,0.501-0.648,0.8c-0.168,0.287-0.334,0.571-0.5,0.852c-0.157,0.283-0.226,0.594-0.334,0.886
					c-0.241,0.581-0.237,1.193-0.302,1.771c0.025,0.579,0.079,1.156,0.228,1.688c0.097,0.263,0.19,0.522,0.284,0.779l0.072,0.189
					l0.037,0.094l0.019,0.047c-0.057-0.103,0.097,0.193,0.09,0.174l0.178,0.272c0.129,0.257,0.759,1,1.218,1.311
					c0.252,0.167,0.483,0.353,0.752,0.479c0.27,0.126,0.539,0.244,0.804,0.354c1.109,0.37,2.252,0.389,3.241,0.203
					c0.242-0.066,0.479-0.131,0.711-0.195l0.172-0.051c-0.013,0.007,0.269-0.105,0.163-0.064l0.028-0.014l0.058-0.028l0.226-0.111
					l0.119-0.06l0.19-0.121c0.127-0.082,0.247-0.168,0.363-0.255c0.236-0.177,0.347-0.341,0.51-0.513
					c0.564-0.702,0.733-1.5,0.657-2.175c-0.02-0.344-0.147-0.646-0.257-0.928l-0.011-0.026c0.046,0.083-0.073-0.143-0.064-0.125
					l-0.021-0.031l-0.044-0.062l-0.086-0.118c-0.116-0.14-0.281-0.314-0.436-0.435c-0.56-0.398-1.173-0.463-1.601-0.401
					c-0.885,0.146-1.036,0.595-1.047,0.558l0.257,0.552c0,0,0.351,0.154,0.528,0.407c0.087,0.132,0.133,0.261,0.126,0.351
					c-0.033,0.012-0.063-0.029-0.058-0.022l0.062,0.129l0.034,0.066l0.017,0.033c0.016,0.029-0.1-0.185-0.051-0.09l0.002,0.009
					c0.008,0.096,0.06,0.188,0.04,0.292c0,0.203-0.078,0.434-0.262,0.617c-0.049,0.027-0.105,0.111-0.132,0.108
					c-0.013,0.002-0.021,0.007-0.025,0.017l-0.006,0.018c-0.02,0.011-0.072,0.031-0.106,0.045l-0.233,0.097
					c0.006-0.002,0.017-0.007,0.012-0.005l-0.085,0.013c-0.114,0.019-0.227,0.042-0.34,0.068c-0.465,0.042-0.97,0.002-1.448-0.191
					c-0.107-0.066-0.218-0.128-0.334-0.185c-0.115-0.058-0.193-0.161-0.3-0.231c-0.132-0.079-0.121-0.148-0.194-0.203
					c-0.032-0.045-0.056-0.017-0.109-0.117l-0.153-0.279l-0.102-0.184c0.02,0.034,0.032,0.055,0.005,0.001l-0.007-0.029
					l-0.015-0.058l-0.027-0.116c-0.043-0.152-0.086-0.307-0.13-0.463c-0.058-0.314-0.046-0.645-0.045-0.973
					c0.093-0.324,0.078-0.669,0.268-0.982c0.081-0.157,0.113-0.332,0.223-0.479c0.11-0.147,0.218-0.296,0.32-0.449
					c0.079-0.166,0.27-0.266,0.395-0.406c0.139-0.127,0.273-0.291,0.412-0.341c0.134-0.078,0.255-0.166,0.373-0.267
					c0.271-0.113,0.546-0.228,0.822-0.344l0.197-0.082c-0.007,0.003-0.021,0.009-0.014,0.007l0.047-0.011l0.366-0.091
					c0.241-0.071,0.49-0.124,0.746-0.155c0.251-0.045,0.505-0.086,0.767-0.094c0.26-0.021,0.519-0.045,0.783-0.029
					c2.098,0,4.322,0.788,5.847,2.259c0.356,0.366,0.732,0.799,0.966,1.187c0.108,0.189,0.224,0.324,0.384,0.688l0.225,0.466
					c0.022,0.043-0.081-0.158-0.029-0.049l0.017,0.052l0.035,0.103l0.068,0.207c0.439,1.085,0.595,2.256,0.637,3.429
					c0.048,1.179-0.197,2.376-0.592,3.535c-0.4,1.16-1.014,2.288-1.855,3.292c-0.829,1.009-1.846,1.913-3.014,2.659l-0.907,0.524
					l-0.846,0.393l-0.206,0.102l-0.321,0.116l-0.646,0.233l-0.323,0.117l-0.161,0.059l-0.081,0.029
					c0.298-0.11,0.041-0.02,0.088-0.04l-0.588,0.148c-6.174,1.744-13.539,1.101-19.231-2.274c-0.352-0.211-0.719-0.402-1.062-0.624
					l-0.99-0.709c-0.694-0.437-1.24-1.025-1.868-1.528c-0.574-0.55-1.112-1.134-1.64-1.718l-0.713-0.931l-0.361-0.462l-0.264-0.444
					l-0.545-0.869c-0.09-0.115-0.195-0.347-0.296-0.559l-0.307-0.636l-0.307-0.637l-0.153-0.319l-0.077-0.16
					c0.188,0.377,0.038,0.062,0.073,0.127l-0.024-0.073l-0.398-1.174l-0.404-1.171c-0.139-0.39-0.284-0.777-0.351-1.184
					c-0.175-0.799-0.352-1.6-0.528-2.402c-0.503-3.235-0.493-6.521,0.046-9.75c0.631-3.22,1.82-6.341,3.471-9.243
					c1.61-2.926,3.9-5.522,6.438-7.804c1.231-1.184,2.701-2.138,4.08-3.153c1.513-0.855,3.025-1.829,4.427-2.388l1.051-0.506
					l0.264-0.129l0.371-0.135l0.741-0.27l1.481-0.539l0.738-0.269l0.369-0.134l0.185-0.067l0.092-0.034
					c0.106-0.04-0.585,0.223-0.253,0.1c0.906-0.258,1.811-0.515,2.711-0.772c0.908-0.235,1.823-0.435,2.728-0.656
					c3.642-0.8,7.305-1.295,10.914-1.503c7.226-0.428,14.225,0.323,20.521,1.899c3.15,0.785,6.141,1.75,8.921,2.876
					c2.775,1.14,5.347,2.413,7.717,3.752c2.347,1.373,4.486,2.811,6.416,4.274c1.898,1.493,3.639,2.961,5.118,4.459
					c0.672,0.661,1.298,1.315,1.891,1.963c-1.491-8.163-3.573-16.288-5.844-24.404c-0.15-0.49-0.315-0.977-0.472-1.466
					c-2.452-1.107-5.027-2.143-7.729-3.072c-3.727-1.265-7.69-2.304-11.827-3.09c-8.267-1.597-17.3-1.978-26.377-0.903
					c-4.537,0.535-9.08,1.434-13.528,2.7c-1.104,0.337-2.217,0.657-3.315,1.016c-1.088,0.383-2.177,0.767-3.27,1.152l-0.438,0.164
					l-0.089,0.039l-0.179,0.078l-0.358,0.155l-0.717,0.312l-1.435,0.624l-0.718,0.313l-0.36,0.157l-0.431,0.223l-1.727,0.912
					c-2.407,1.198-4.274,2.574-6.269,3.919c-1.834,1.501-3.709,2.966-5.289,4.676c-3.235,3.335-6,7.046-7.865,11.081
					c-1.905,4.011-3.134,8.238-3.611,12.508c-0.395,4.28-0.033,8.559,0.979,12.663c0.312,1.013,0.624,2.023,0.936,3.031
					c0.137,0.507,0.355,0.992,0.569,1.477l0.635,1.453l0.638,1.443l0.04,0.09c0.058,0.119-0.074-0.139,0.141,0.29l0.09,0.154
					l0.18,0.308l0.359,0.616l0.358,0.615c0.119,0.205,0.222,0.396,0.42,0.667l1.062,1.495c2.789,3.747,6.503,6.583,10.678,8.63
					C177.001,215.212,179.226,215.94,181.442,216.549z M396.837,117.521l-0.003-0.127l-0.027-2.042l-0.036-2.052
					c-0.01-0.686-0.015-1.374-0.116-2.056c-0.16-1.372-0.321-2.746-0.483-4.124c-0.92-5.478-2.608-10.905-5.091-16.022
					c-2.563-5.071-5.895-9.78-9.832-13.945c-3.906-4.211-8.6-7.652-13.605-10.436c-2.484-1.461-5.159-2.497-7.809-3.595
					c-2.742-0.84-5.366-1.77-8.47-2.258l-2.252-0.416l-0.561-0.098l-0.453-0.046l-0.904-0.091l-1.806-0.18l-0.904-0.09l-0.45-0.044
					l-0.226-0.023l-0.112-0.011l-0.539-0.021c-1.332-0.026-2.659-0.052-3.986-0.078c-1.326,0.008-2.649,0.071-3.97,0.109
					c-5.278,0.267-10.479,1.025-15.498,2.229c-10.042,2.406-19.335,6.587-27.236,11.954c-3.96,2.67-7.616,5.581-10.914,8.672
					c-3.286,3.107-6.231,6.362-8.864,9.663c-2.592,3.331-4.864,6.703-6.831,10.041c-0.881,1.543-1.705,3.069-2.477,4.581
					c1.268,2.286,2.506,4.584,3.705,6.899c2.772,5.027,4.978,10.25,7.362,15.415c1.244,2.57,2.167,5.229,3.229,7.85
					c0.173,0.445,0.35,0.89,0.524,1.334c0.126-1.33,0.204-2.861,0.479-4.526c0.502-3.668,1.428-8.097,3.153-12.982
					c0.829-2.456,1.945-4.982,3.216-7.604c1.317-2.599,2.868-5.251,4.666-7.909c1.84-2.626,3.923-5.253,6.284-7.8
					c2.372-2.531,5.043-4.951,7.969-7.214c5.845-4.532,12.825-8.334,20.612-10.775c3.888-1.227,7.971-2.121,12.177-2.631
					c1.056-0.099,2.112-0.229,3.179-0.312c1.069-0.053,2.143-0.107,3.217-0.162c0.408,0.015-0.445-0.025-0.313-0.02l0.112,0.004
					l0.227,0.006l0.451,0.015l0.905,0.028l1.814,0.056l0.907,0.028l0.455,0.013l0.339,0.052l1.348,0.192
					c1.74,0.114,3.798,0.693,5.798,1.126c1.938,0.686,3.939,1.258,5.805,2.212c3.765,1.773,7.42,4.034,10.523,6.981
					c3.135,2.902,5.89,6.263,8.107,9.976c2.125,3.761,3.725,7.811,4.759,12.007c0.203,1.062,0.404,2.123,0.606,3.181
					c0.128,0.529,0.161,1.067,0.205,1.605l0.142,1.61l0.149,1.612l0.01,0.099c0.005-0.094,0,0.355,0.015-0.186l-0.004,0.229
					l-0.007,0.456l-0.014,0.911l-0.015,0.91c-0.004,0.303-0.002,0.633-0.041,0.812l-0.151,1.295l-0.062,0.656l-0.155,0.718
					l-0.299,1.441c-0.271,0.937-0.553,1.879-0.89,2.793c-0.415,0.878-0.703,1.828-1.221,2.652l-0.696,1.283
					c-0.253,0.414-0.546,0.801-0.812,1.206c-4.341,6.502-11.758,10.323-19.078,10.708l-0.688,0.059
					c0.058,0.005-0.255-0.001,0.11,0.012l-0.099-0.002l-0.198-0.006l-0.395-0.012l-0.79-0.022l-0.394-0.011l-0.265-0.042
					l-1.077-0.137l-1.204-0.273c-1.587-0.441-3.091-1.138-4.446-2.042c-1.369-0.893-2.559-2.033-3.538-3.298
					c-0.975-1.268-1.81-2.644-2.329-4.118c-0.522-1.464-0.926-2.973-0.989-4.492l-0.027-0.283l-0.014-0.141l-0.007-0.072
					c0.001-0.156-0.011,0.135-0.008,0.073l0.01-0.668c-0.007-0.516,0.048-0.729,0.07-1.006c0.058-0.574,0.243-1.263,0.439-1.861
					c0.889-2.441,2.843-4.327,5.043-5.19c0.271-0.128,0.553-0.205,0.836-0.286c0.278-0.097,0.564-0.152,0.851-0.198
					c0.282-0.067,0.569-0.104,0.857-0.115l0.429-0.038l0.055-0.006c0.004,0,0,0,0.001,0l0.228,0.018
					c0.346,0.029,0.689,0.058,1.028,0.086c0.173,0.076,0.343,0.134,0.521,0.175c0.169,0.006,0.39,0.152,0.597,0.252
					c0.199,0.121,0.447,0.167,0.61,0.338c0.182,0.146,0.365,0.286,0.554,0.422c0.186,0.138,0.304,0.34,0.465,0.5
					c0.35,0.309,0.501,0.74,0.755,1.102c0.159,0.404,0.331,0.807,0.423,1.219c0.03,0.21,0.059,0.418,0.088,0.624l0.026,0.154
					l0.013,0.077l0.007,0.038c-0.003,0.084,0.001,0.044,0.006-0.014l-0.019,0.279l-0.026,0.407c-0.007,0.146-0.046,0.121-0.059,0.19
					c-0.05,0.098-0.006,0.179-0.105,0.33c-0.078,0.131-0.109,0.291-0.203,0.409c-0.095,0.118-0.181,0.238-0.261,0.365
					c-0.408,0.435-0.919,0.692-1.428,0.831c-0.131,0.014-0.26,0.031-0.39,0.055l-0.095,0.019c-0.005,0,0.008,0.001,0.013,0.001
					l-0.29-0.023c-0.043-0.004-0.107-0.007-0.133-0.012l-0.015-0.02c-0.011-0.01-0.021-0.013-0.035-0.01
					c-0.025,0.015-0.126-0.065-0.189-0.079c-0.281-0.15-0.476-0.404-0.573-0.654c-0.071-0.121-0.062-0.255-0.1-0.376l-0.003-0.012
					c0.006-0.137-0.012,0.175-0.009,0.132l0.001-0.048l0.004-0.095l0.004-0.185c0.002-0.012-0.01,0.051-0.051,0.05
					c-0.05-0.108-0.063-0.285-0.036-0.484c0.063-0.385,0.357-0.72,0.357-0.72l0.002-0.786c0.007,0.05-0.369-0.441-1.367-0.258
					c-0.479,0.099-1.091,0.431-1.485,1.152c-0.104,0.212-0.192,0.496-0.247,0.715l-0.033,0.181l-0.017,0.094l-0.008,0.047
					c0-0.026-0.015,0.301-0.008,0.18l0.001,0.037c0.022,0.393,0.035,0.818,0.18,1.25c0.246,0.864,0.809,1.779,1.741,2.413
					c0.254,0.145,0.449,0.301,0.781,0.423c0.165,0.06,0.333,0.116,0.506,0.166l0.257,0.07l0.154,0.025l0.291,0.044l0.074,0.011
					l0.036,0.006c-0.131-0.007,0.219,0.017,0.203,0.013l0.204-0.008c0.274-0.017,0.554-0.035,0.84-0.052
					c1.127-0.177,2.317-0.669,3.303-1.582c0.224-0.245,0.45-0.501,0.672-0.768s0.374-0.59,0.558-0.899
					c0.331-0.572,0.634-1.748,0.645-2.118l0.056-0.409c0.002,0.026,0.02-0.401,0.01-0.251l-0.003-0.066l-0.008-0.131l-0.015-0.264
					c-0.026-0.354-0.053-0.713-0.078-1.077c-0.102-0.717-0.324-1.452-0.578-2.175c-0.347-0.687-0.638-1.444-1.172-2.062
					c-0.254-0.315-0.477-0.671-0.778-0.955c-0.309-0.278-0.621-0.561-0.936-0.846c-0.305-0.305-0.705-0.48-1.067-0.72
					c-0.381-0.22-0.728-0.462-1.226-0.615c-0.468-0.17-0.949-0.329-1.438-0.468c-0.346-0.054-0.694-0.111-1.047-0.166l-0.262-0.041
					l-0.13-0.02c0.182,0.008-0.321-0.024-0.3-0.02l-0.079-0.001l-0.638,0.002c-0.43-0.008-0.86,0.014-1.294,0.074
					c-0.437,0.043-0.874,0.097-1.308,0.204c-0.438,0.089-0.878,0.184-1.306,0.337c-3.465,1.063-6.758,3.716-8.509,7.577
					c-0.416,0.986-0.763,1.946-0.981,3.101c-0.109,0.588-0.215,1.242-0.229,1.616l-0.059,0.665l-0.006,0.238v0.098l0.002,0.193
					l0.006,0.389c-0.046,2.08,0.325,4.22,0.924,6.333c0.592,2.126,1.61,4.174,2.882,6.093c1.276,1.92,2.878,3.696,4.781,5.166
					c1.894,1.482,4.06,2.695,6.414,3.538l1.799,0.553c0.644,0.155,1.334,0.278,2.01,0.403l0.51,0.09l0.391,0.04l0.788,0.08
					l0.394,0.041l0.196,0.019l0.099,0.01c0.435,0.021,0.185,0.006,0.311,0.011l0.897-0.001c4.803,0.089,9.803-0.892,14.454-3.017
					c1.198-0.466,2.272-1.187,3.417-1.796c1.109-0.668,2.162-1.447,3.232-2.21c2.031-1.662,4.013-3.475,5.671-5.615
					c3.391-4.241,5.917-9.265,7.033-15.033l0.393-2.28c0.076-0.417,0.092-0.694,0.118-0.997l0.078-0.906l0.079-0.907l0.04-0.454
					l0.02-0.227C396.847,117.32,396.834,117.692,396.837,117.521z"/>
			</g>
		</g>
	</mask>
	<g transform="matrix(1 0 0 1 -1.525879e-05 -3.814697e-06)" opacity="0.2" mask="url(#SVGID_1_)">
		
			<image overflow="visible" width="3504" height="2336" xlink:href="texturevault_4grunge/texturevault_net_9700.jpg"  transform="matrix(0.24 0 0 0.24 -156.125 -32.0005)">
		</image>
	</g>
</g>
<g id="Devices">
	<g id="iMac" display="none">
		<path display="inline" fill="#0D3B4C" d="M351.573,245.124L351.573,245.124l-3.693-28.477h-47.023l-3.756,28.946
			c-1.781,4.825-7.203,9.82-7.203,11.06v1.54c0,1.277,1.284,2.313,2.87,2.313h63.2c1.585,0,2.871-1.037,2.871-2.313v-1.54
			C358.839,255.375,353.158,250.09,351.573,245.124z"/>
		<polygon display="inline" fill="#0D3B4C" points="300.856,216.647 299.894,224.062 348.842,224.062 347.88,216.647 		"/>
		<path display="inline" fill="#0D3B4C" d="M441.235,213.85c0,3.016-2.468,5.483-5.483,5.483H212.984
			c-3.017,0-5.483-2.467-5.483-5.483V68.135c0-3.016,2.467-5.483,5.483-5.483h222.768c3.016,0,5.483,2.467,5.483,5.483V213.85z"/>
		<rect x="216.846" y="74.338" display="inline" fill="#094F68" width="215.044" height="133.309"/>
	</g>
	<g id="Laptop">
		<path fill="#FFFFFF" d="M375.955,252.828h-161.59c-2.863,0-5.205,2.34-5.205,5.204v109.871h172V258.032
			C381.16,255.168,378.818,252.828,375.955,252.828z"/>
		<rect x="215.894" y="260.172" fill="#094F68" width="158.533" height="102.068"/>
		<path fill="#FFFFFF" d="M191.612,367.902v3.11c0,1.016,0.788,2.074,1.76,2.365l4.744,1.419c0.972,0.292,2.583,0.529,3.596,0.529
			h186.896c1.014,0,2.624-0.238,3.595-0.529l4.745-1.419c0.972-0.292,1.76-1.35,1.76-2.365v-3.11H191.612z"/>
		<path fill="#FFFFFF" d="M279.804,367.902c0.12,1.327,1.222,2.372,2.579,2.372h25.554c1.357,0,2.46-1.045,2.58-2.372H279.804z"/>
	</g>
	<g id="iPad">
		<path fill="#FFFFFF" d="M144.755,206.023c0,3.088-2.527,5.616-5.616,5.616H55.606c-3.089,0-5.616-2.528-5.616-5.616V94.754
			c0-3.088,2.527-5.616,5.616-5.616h83.532c3.089,0,5.616,2.528,5.616,5.616V206.023z"/>
		<rect x="59.207" y="100.09" fill="#094F68" width="76.331" height="100.597"/>
		<circle fill="#FFFFFF" cx="97.373" cy="94.436" r="0.991"/>
		<circle fill="#094F68" cx="97.372" cy="206.204" r="2.642"/>
	</g>
	<g id="Phone">
		<path fill="#FFFFFF" d="M333.284,97.344c0,2.372-1.922,4.295-4.294,4.295h-25.246c-2.372,0-4.294-1.923-4.294-4.295v-65.63
			c0-2.373,1.922-4.295,4.294-4.295h25.246c2.372,0,4.294,1.922,4.294,4.295V97.344z"/>
		<circle fill="#094F68" cx="316.367" cy="96.104" r="2.716"/>
		<rect x="300.978" y="36.862" fill="#094F68" width="30.778" height="53.027"/>
		<path fill="#0D3B4C" d="M321.601,32.915c0,0.501-0.405,0.905-0.905,0.905h-8.656c-0.5,0-0.905-0.404-0.905-0.905l0,0
			c0-0.5,0.405-0.905,0.905-0.905h8.656C321.195,32.01,321.601,32.415,321.601,32.915L321.601,32.915z"/>
	</g>
	<g id="Phone_1_" display="none">
		<path display="inline" fill="#0D3B4C" d="M173.182,278.613c2.373,0,4.295,1.922,4.295,4.293v25.246
			c0,2.373-1.922,4.295-4.295,4.295h-65.629c-2.373,0-4.295-1.922-4.295-4.295v-25.246c0-2.371,1.922-4.293,4.295-4.293H173.182z"/>
		<circle display="inline" fill="#094F68" cx="171.941" cy="295.53" r="2.716"/>
		<rect x="112.699" y="280.14" display="inline" fill="#094F68" width="53.027" height="30.779"/>
		<path display="inline" fill="#0D3B4C" d="M108.752,290.296c0.502,0,0.906,0.404,0.906,0.904v8.656c0,0.5-0.404,0.906-0.906,0.906
			l0,0c-0.5,0-0.904-0.406-0.904-0.906v-8.656C107.848,290.701,108.252,290.296,108.752,290.296L108.752,290.296z"/>
	</g>
	<g id="Seed_Icon" opacity="0.9">
		<path fill="#FFFFFF" d="M-547.731,23.333c0.519,0-7.737,7.242-17.281,7.242c-9.543,0-17.28-7.117-17.28-7.242
			s7.737-7.242,17.28-7.242C-555.468,16.091-547.904,23.333-547.731,23.333z"/>
		<ellipse fill="#094F68" cx="-564.85" cy="19.375" rx="3.985" ry="1.555"/>
		<path fill="#FFFFFF" d="M-566.392,19.237c-0.258-0.251,0.006-0.525,0.017-1.444c0.03-0.963,0.068-2.314,0.219-3.92
			c0.145-1.609,0.381-3.479,0.765-5.458c0.377-1.98,0.92-4.066,1.627-6.095c0.711-2.026,1.594-3.999,2.657-5.715
			c0.529-0.858,1.091-1.659,1.697-2.359c0.603-0.701,1.217-1.328,1.858-1.821c0.635-0.496,1.258-0.9,1.855-1.167
			c0.586-0.288,1.136-0.442,1.586-0.553c0.457-0.084,0.814-0.14,1.063-0.141c0.247-0.013,0.377-0.02,0.377-0.02
			s-0.13,0.02-0.374,0.057c-0.244,0.025-0.594,0.115-1.03,0.241c-0.429,0.152-0.944,0.353-1.479,0.685
			c-0.545,0.31-1.103,0.756-1.658,1.286c-0.561,0.527-1.085,1.181-1.59,1.901c-0.508,0.719-0.966,1.532-1.387,2.396
			c-0.848,1.727-1.502,3.687-1.988,5.681c-0.48,1.998-0.801,4.031-0.973,5.948c-0.178,1.917-0.228,3.712-0.213,5.249
			c0.008,1.54,0.1,2.814,0.156,3.687c0.08,0.916,0.364,1.168,0.125,1.439C-563.63,19.733-565.798,19.815-566.392,19.237z"/>
		<path fill="#FFFFFF" d="M-543.334-6.183c2.259,4.257-1.48,12.326-1.48,12.326s-9.236-1.185-11.495-5.442
			c-2.259-4.257,3.126-9.777,3.126-9.777S-545.593-10.44-543.334-6.183z"/>
		<g>
			<path fill="#094F68" d="M-546.5,1.09c0,0-0.062-0.134-0.153-0.37c-0.085-0.233-0.208-0.566-0.354-0.965
				c-0.292-0.785-0.649-1.827-1.1-2.803c-0.433-0.985-0.959-1.909-1.508-2.456c-0.141-0.13-0.272-0.252-0.407-0.334
				c-0.128-0.104-0.261-0.136-0.369-0.198c-0.222-0.072-0.374-0.105-0.374-0.105s0.132-0.053,0.399-0.092
				c0.127,0.009,0.307-0.021,0.485,0.04c0.191,0.035,0.391,0.112,0.599,0.223c0.842,0.442,1.611,1.441,2.086,2.513
				c0.232,0.542,0.423,1.096,0.538,1.63c0.123,0.532,0.187,1.036,0.211,1.472c0.027,0.438,0.015,0.797-0.011,1.049
				C-546.479,0.945-546.5,1.09-546.5,1.09z"/>
		</g>
		<path fill="#FFFFFF" d="M-564.259,3.716c0,0,0.082-0.084,0.233-0.241c0.155-0.154,0.383-0.383,0.619-0.704
			c0.129-0.152,0.259-0.33,0.383-0.539c0.134-0.201,0.273-0.421,0.39-0.674c0.271-0.486,0.473-1.083,0.648-1.736
			c0.141-0.663,0.237-1.393,0.196-2.162c-0.05-0.767-0.193-1.566-0.484-2.344c-0.281-0.781-0.728-1.524-1.285-2.181l-0.175-0.213
			l-0.257-0.231c-0.173-0.146-0.344-0.326-0.519-0.447c-0.352-0.181-0.655-0.411-1.074-0.515c-0.382-0.171-0.804-0.173-1.204-0.243
			c-0.407,0.039-0.817,0.005-1.198,0.148c-0.397,0.066-0.739,0.271-1.091,0.426c-0.179,0.073-0.314,0.221-0.473,0.324l-0.229,0.167
			l-0.057,0.041l-0.029,0.021c0.102-0.097,0.024-0.022,0.045-0.042l-0.007,0.008l-0.014,0.015l-0.11,0.121
			c-0.149,0.156-0.327,0.327-0.358,0.434c-0.07,0.115-0.154,0.226-0.205,0.391l-0.095,0.222l-0.046,0.235
			c-0.014,0.078-0.04,0.154-0.051,0.233l-0.005,0.235c-0.021,0.62,0.242,1.234,0.569,1.645c0.345,0.404,0.829,0.536,1.284,0.483
			c0.225-0.02,0.43-0.102,0.606-0.206l0.07-0.035c-0.023,0.03,0.034-0.025,0.046-0.033l0.13-0.109c0.04-0.058,0.1-0.099,0.134-0.179
			c0.172-0.288,0.146-0.594,0.092-0.779c-0.052-0.192-0.125-0.285-0.117-0.289l0.104-0.09c-0.007,0.005,0.101,0.076,0.233,0.278
			c0.134,0.196,0.27,0.575,0.141,1.057c-0.021,0.119-0.096,0.25-0.171,0.385l-0.104,0.145c-0.029,0.034-0.009,0.027-0.079,0.094
			l-0.08,0.069c-0.212,0.193-0.484,0.373-0.813,0.477c-0.326,0.125-0.709,0.134-1.103,0.079c-0.197-0.04-0.388-0.092-0.597-0.189
			c-0.105-0.055-0.21-0.117-0.313-0.182c-0.112-0.069-0.146-0.114-0.222-0.174c-0.638-0.588-1.083-1.418-1.146-2.405l-0.019-0.369
			c0.008-0.123,0.026-0.247,0.045-0.372l0.061-0.375l0.127-0.364c0.049-0.123,0.079-0.244,0.146-0.368l0.229-0.37
			c0.167-0.279,0.312-0.403,0.461-0.565l0.116-0.117l0.081-0.08l0.039-0.026l0.079-0.054l0.313-0.214
			c0.216-0.132,0.411-0.305,0.649-0.4c0.472-0.205,0.95-0.409,1.472-0.467c0.507-0.131,1.035-0.069,1.552-0.072
			c0.51,0.108,1.033,0.163,1.502,0.399c0.487,0.155,0.938,0.49,1.378,0.791c0.194,0.158,0.336,0.327,0.506,0.489l0.244,0.245
			l0.015,0.016c0.07,0.073,0.024,0.025,0.042,0.044l0.007,0.009l0.027,0.037l0.055,0.073l0.108,0.147
			c0.584,0.774,1.035,1.632,1.298,2.513c0.269,0.878,0.391,1.763,0.377,2.596c-0.018,0.836-0.179,1.61-0.38,2.299
			c-0.237,0.68-0.496,1.289-0.816,1.775c-0.142,0.253-0.303,0.471-0.457,0.669c-0.144,0.205-0.292,0.38-0.439,0.53
			c-0.274,0.317-0.516,0.525-0.682,0.668c-0.163,0.145-0.25,0.222-0.25,0.222L-564.259,3.716z"/>
	</g>
</g>
</svg>
